<svg xmlns="http://www.w3.org/2000/svg" fill="none" viewBox="0 0 377 184">
  <defs />
  <path fill="#000"
    d="M191.3 87h-12.8V58.8H168V46.7h33.9v12.1h-10.6V87zM202.5 72.3c0-2.1.4-4 1.2-6a16.3 16.3 0 0129.5 0 14.2 14.2 0 010 11.8 15.4 15.4 0 01-8.5 8.3 16.4 16.4 0 01-17.7-3.3c-1.3-1.4-2.5-3-3.3-4.9-.8-1.8-1.2-3.8-1.2-6zm20.5 0c0-1.5-.5-2.6-1.3-3.5-.9-.9-2-1.3-3.2-1.3-1.3 0-2.4.4-3.2 1.3-.9.9-1.3 2-1.3 3.5 0 1.4.4 2.6 1.3 3.5.8.9 1.9 1.3 3.2 1.3 1.3 0 2.3-.4 3.2-1.3.8-.9 1.3-2 1.3-3.5zM250.8 87.6a11 11 0 01-4.9-1.1 14.4 14.4 0 01-7.2-8c-.7-1.9-1-4-1-6.2a17 17 0 014-11c1.2-1.4 2.6-2.5 4.2-3.2a12 12 0 0110.4.1c.8.4 1.4.8 1.8 1.3V46.7h11.6V87H261l-1.6-2.9a11.9 11.9 0 01-8.6 3.5zm7.3-15.3c0-1.5-.4-2.6-1.2-3.5-.9-.9-2-1.3-3.2-1.3-1.3 0-2.4.4-3.2 1.3-.9.9-1.3 2-1.3 3.5 0 1.4.4 2.6 1.3 3.5.8.9 1.9 1.3 3.2 1.3 1.2 0 2.3-.4 3.2-1.3.8-.9 1.2-2 1.2-3.5zM273.9 72.3c0-2.1.4-4 1.2-6a16.3 16.3 0 0129.5 0 14.2 14.2 0 010 11.8 15.4 15.4 0 01-8.5 8.3c-2 .8-4 1.2-6.3 1.2a16.4 16.4 0 01-11.3-4.5 14.8 14.8 0 01-4.6-10.8zm20.4 0c0-1.5-.4-2.6-1.3-3.5-.8-.9-1.9-1.3-3.1-1.3-1.3 0-2.4.4-3.3 1.3-.8.9-1.2 2-1.2 3.5 0 1.4.4 2.6 1.3 3.5.8.9 1.9 1.3 3.2 1.3 1.2 0 2.3-.4 3.2-1.3.8-.9 1.2-2 1.2-3.5zM321.5 87H310V57.6h11.5V87zm-11.8-37.8c0-1.6.5-3 1.6-4a6.1 6.1 0 014.5-1.7c1.7 0 3.2.5 4.3 1.6a5.5 5.5 0 011.7 4.1c0 1.7-.5 3-1.7 4.1a5.9 5.9 0 01-4.3 1.7c-1.8 0-3.3-.6-4.5-1.7a5.6 5.6 0 01-1.6-4zM335.9 77c0 .5.2 1 .6 1.4.5.4 1 .6 1.6.6 1.5 0 2.3-.5 2.3-1.6 0-.3-.4-.6-1.1-.8l-2.8-.5-3.5-1a15 15 0 01-3.6-1.6c-1-.7-2-1.6-2.6-2.8-.8-1-1.1-2.5-1.1-4.2a8 8 0 01.8-3.5 9.7 9.7 0 012.6-3c1-1 2.4-1.7 4-2.2a20.9 20.9 0 0111.1-.1c1.7.4 3 1 4.2 1.8a9 9 0 012.6 3 13 13 0 011.5 3.7l-10.8 1.3c0-.5-.2-1-.6-1.3-.2-.4-.7-.6-1.4-.6-.4 0-.8 0-1.1.3-.3.3-.5.6-.5 1 0 .3.4.5 1.1.7a596.3 596.3 0 016.3 1.5c1.3.4 2.5 1 3.5 1.7 1.1.7 2 1.6 2.8 2.7.7 1.1 1 2.5 1 4.2 0 1.3-.2 2.5-.8 3.7a9.8 9.8 0 01-2.7 3.2c-1 1-2.5 1.7-4.1 2.2a25 25 0 01-11.8.2 11 11 0 01-8.4-8.6L336 77zM370.5 73c0 2.5 1.1 3.8 3.5 3.8h.9a22.1 22.1 0 001.3-.4v10.3a32 32 0 01-3.3.8l-2.1.1c-3.7 0-6.6-1-8.7-3.1-2.1-2.1-3.2-5.1-3.2-9v-7.7h-4.1v-9.6h2.2c1 0 1.8-.3 2.3-.8.6-.6 1-1.4 1-2.4v-4.5h10.2v7h5.7v10.3h-5.7v5.1zM189.4 113.2h20.8V135h-8l-1.6-3.8c-.8.8-1.7 1.6-2.8 2.2a17 17 0 01-9 2.2c-2.7 0-5.2-.5-7.6-1.6a21.4 21.4 0 01-10.7-11c-1-2.5-1.6-5.3-1.6-8.2a20.4 20.4 0 0112.8-19.1 23.5 23.5 0 0118.6.6 18.1 18.1 0 019.6 11.8l-12.8 1.3c-.5-.6-1-1.1-1.7-1.6-.6-.4-1.4-.7-2.3-1a8.3 8.3 0 00-8.9 2 8.6 8.6 0 00-2.5 6 9 9 0 00.7 3.4c.4 1 1 2 1.8 2.8.8.8 1.7 1.4 2.6 1.8a8.5 8.5 0 005.9.3 9.2 9.2 0 003.7-2.2h-7v-7.7zM226.8 135h-11.5v-29.4h11.5V135zM215 97.2c0-1.6.5-3 1.7-4a6.1 6.1 0 014.4-1.7c1.8 0 3.2.5 4.3 1.6a5.5 5.5 0 011.8 4.1c0 1.7-.6 3-1.8 4.1a5.9 5.9 0 01-4.3 1.7c-1.8 0-3.3-.6-4.4-1.7a5.6 5.6 0 01-1.7-4zM246 121c0 2.5 1.2 3.8 3.5 3.8h1a22.1 22.1 0 001.3-.4v10.3a32 32 0 01-3.3.8l-2.2.1c-3.7 0-6.6-1-8.7-3.1-2-2.1-3.1-5.1-3.1-9v-7.7h-4.2v-9.6h2.3c1 0 1.7-.3 2.3-.8.6-.6.9-1.4.9-2.4v-4.5H246v7h5.8v10.3H246v5.1zM276.8 105a10.9 10.9 0 018 3.3 12 12 0 012.3 4c.6 1.6.9 3.4.9 5.4V135h-11.6v-14.7c0-1.3-.3-2.3-1-3a3.2 3.2 0 00-2.5-1.2c-1 0-2 .4-2.7 1.2a4 4 0 00-1.1 3V135h-11.5V94.7H269v13.1a12.4 12.4 0 017.7-2.9zM304.6 135.6a11 11 0 01-11-7.4c-.6-1.6-.9-3.4-.9-5.4v-17.2h11.6v14.7c0 1.3.3 2.3 1 3 .7.8 1.5 1.1 2.5 1.1 1.1 0 2-.3 2.7-1 .8-.8 1.1-1.8 1.1-3.1v-14.7h11.5V135h-8.3l-1.6-2.9a11.8 11.8 0 01-5 3c-1 .4-2.2.5-3.6.5zM347.1 135.6a12 12 0 01-8.6-3.5l-1.6 2.9h-8.7V94.7h11.6v12.8c.4-.5 1-1 1.7-1.3a10 10 0 012.3-.9c1-.3 2-.4 3.3-.4 1.7 0 3.3.4 4.9 1.2a14.5 14.5 0 017.1 8 16 16 0 011.1 6.2 16.2 16.2 0 01-4 11 13.5 13.5 0 01-4.2 3.2 11 11 0 01-4.9 1.1zm-7.3-15.3c0 1.4.4 2.6 1.2 3.5.9.9 2 1.3 3.2 1.3 1.3 0 2.4-.4 3.2-1.3.9-.9 1.3-2 1.3-3.5s-.4-2.6-1.3-3.5c-.8-.9-1.9-1.3-3.2-1.3-1.2 0-2.3.4-3.2 1.3-.8.9-1.2 2-1.2 3.5zM187.5 156.1l-2.6 9.6h5.1l-2.5-9.6zM182 176l-1.9 7h-13.7l13.4-40.3h15.4l13.4 40.3h-13.8l-1.9-7H182zM225.5 153c1.7 0 3.2 0 4.5.4a13.6 13.6 0 016.3 3.4 15.9 15.9 0 014.6 8.3l-11.2 1.3a5 5 0 00-.9-1.4c-.3-.4-.8-.7-1.3-1-.5-.3-1.2-.5-2-.5-1.2 0-2.3.4-3.2 1.3-.8.9-1.2 2-1.2 3.5s.4 2.6 1.2 3.5c.9.9 2 1.3 3.2 1.3.8 0 1.5-.2 2-.5s1-.6 1.3-1c.4-.4.7-.8.9-1.4l11.2 1.3a15.3 15.3 0 01-7.3 10.3 18 18 0 01-14.4.6 16.3 16.3 0 01-8.4-8.2 14.9 14.9 0 010-11.8c.8-1.9 2-3.5 3.3-5a16.3 16.3 0 0111.4-4.5zM258.8 169c0 2.5 1.2 3.8 3.5 3.8h1a22.1 22.1 0 001.3-.4v10.3a32 32 0 01-3.3.8l-2.2.1c-3.7 0-6.6-1-8.7-3.1-2-2.1-3-5.1-3-9v-7.7H243v-9.6h2.3c1 0 1.7-.3 2.3-.8.6-.6.9-1.4.9-2.4v-4.5h10.2v7h5.8v10.3h-5.8v5.1zM281.9 183h-11.5v-29.4h11.5V183zM270 145.2c0-1.6.5-3 1.6-4a6.1 6.1 0 014.4-1.7c1.8 0 3.3.5 4.4 1.6a5.5 5.5 0 011.7 4.1c0 1.7-.6 3-1.7 4.1a5.9 5.9 0 01-4.4 1.7c-1.8 0-3.2-.6-4.4-1.7a5.6 5.6 0 01-1.6-4zM286 168.3c0-2.1.4-4 1.3-6 .8-1.8 2-3.4 3.3-4.8a16.3 16.3 0 0126.2 4.9c.8 1.8 1.2 3.8 1.2 5.9 0 2-.4 4-1.2 6a15.4 15.4 0 01-8.5 8.1c-2 .8-4 1.2-6.3 1.2a16.4 16.4 0 01-11.4-4.5 14.9 14.9 0 01-4.6-10.8zm20.5 0c0-1.5-.4-2.6-1.3-3.5-.8-.9-1.9-1.3-3.2-1.3-1.2 0-2.3.4-3.2 1.3-.8.9-1.2 2-1.2 3.5 0 1.4.4 2.6 1.2 3.5.9.9 2 1.3 3.2 1.3 1.3 0 2.4-.4 3.2-1.3.9-.9 1.3-2 1.3-3.5zM340.7 153c1.8 0 3.4.2 4.8.8 1.5.6 2.7 1.4 3.8 2.5a11 11 0 012.4 4c.6 1.6.9 3.4.9 5.4V183H341v-14.7c0-1.3-.4-2.3-1-3a3.2 3.2 0 00-2.6-1.2c-1 0-2 .4-2.7 1.2a4 4 0 00-1.1 3V183h-11.5v-29.4h8.3l1.6 2.8a13.6 13.6 0 015-2.9c1-.4 2.3-.6 3.6-.6z" />
  <path fill="#9CDAF1"
    d="M88.6 88.8c0 6.1-14.2 11-31.7 11s-31.6-4.9-31.6-11c0-6.2 14.1-11.2 31.6-11.2s31.7 5 31.7 11.2z" />
  <path fill="#7DBBE6"
    d="M48.3 99.5v-8c0-1-.2-1.8-.5-2.6 2 1.6 2.2 5.6 2.2 5.6v5.1c1.8.2 3.7.2 5.7.3v-5c-.3-7-6.3-7.9-6.3-7.9-2.1-.5-2 .6-1.9 1.3-2-3.6-7.8-3.1-7.8-3.1-2 .7-.1 2-.1 2 3 1 3.4 4.5 3.4 4.5v7l5.3.8zM73.2 85.2s-5.7-.5-7.8 3.1c.2-.7.3-1.8-1.9-1.3 0 0-5.9.9-6.2 7.8v5l5.7-.1v-5.2s0-4 2.1-5.6c-.3.8-.5 1.6-.5 2.6v8c1.9-.1 3.7-.3 5.4-.6v-7.2s.3-3.4 3.4-4.5c0 0 1.8-1.3-.2-2z" />
  <path fill="#000"
    d="M112.8 42.6l.1-.4c-9.3-1.9-18.8-1.9-24.6-1.6 1-3.5 1.2-7.4 1.2-11.8 0-6.3-2.3-11.4-6.2-15.2.7-2.2 1.6-7-.8-13.2 0 0-4.4-1.4-14.2 5.2A49.7 49.7 0 0043 6C32.9-1 28.4.4 28.4.4c-3 7.3-1.1 12.8-.6 14.1a20.5 20.5 0 00-5.5 14.3c0 4.4.5 8.3 1.7 11.7-5.8-.2-15-.1-24 1.7l.1.4c9-1.8 18.3-1.9 24-1.6l1 2c-5.7.2-15.5 1-24.9 3.6l.2.4c9.4-2.7 19.2-3.4 24.9-3.6 3.4 6.4 10.2 10.6 22.1 11.9a9.9 9.9 0 00-4.1 6.4c-2.3 1-9.7 3.8-14-3.8 0 0-2.5-4.5-7.2-4.9 0 0-4.6 0-.4 2.9 0 0 3.1 1.4 5.2 6.9 0 0 2.8 9.2 16 6.3v9.6s-.2 3.3-3.3 4.5c0 0-1.8 1.3.1 2 0 0 8.6.7 8.6-6.4V68.3s-.3-4.1 1.7-5.5v17.1s-.1 4.1-2.2 5.7c0 0-1.5 2.5 1.6 1.8 0 0 6-.8 6.2-7.8l.2-17.3h1.4l.1 17.3c.3 7 6.2 7.8 6.2 7.8 3.1.7 1.7-1.8 1.7-1.8-2.1-1.6-2.2-5.7-2.2-5.7V63c2 1.6 1.6 5.4 1.6 5.4v10.5c0 7 8.6 6.4 8.6 6.4 2-.7.2-2 .2-2-3.1-1.2-3.4-4.5-3.4-4.5V64.9c0-5.3-2.2-8.1-4.4-9.6 12.7-1.3 18.9-5.4 21.7-11.9 5.6.2 15.7.9 25.3 3.6l.1-.4c-9.6-2.7-19.6-3.4-25.2-3.6l.7-2c5.7-.3 15.3-.3 24.6 1.6z" />
  <path fill="#F4CBB2"
    d="M77 28.5a12 12 0 014.4 8.8c0 15.2-11.3 15.6-25.2 15.6-14 0-25.2-2.1-25.2-15.6a12 12 0 014.3-8.8c4.5-4.1 12.2-2 20.9-2 8.6 0 16.3-2.1 20.8 2z" />
  <path fill="#fff"
    d="M47.8 38c0 4.2-2.4 7.6-5.3 7.6s-5.2-3.4-5.2-7.6c0-4.1 2.3-7.5 5.2-7.5 3 0 5.3 3.4 5.3 7.5zm28.1 0c0 4.2-2.3 7.6-5.2 7.6-2.9 0-5.2-3.4-5.2-7.6 0-4.1 2.3-7.5 5.2-7.5 2.9 0 5.2 3.4 5.2 7.5z" />
  <path fill="#AD5C51"
    d="M46.1 38.1c0 2.8-1.6 5-3.5 5-2 0-3.5-2.2-3.5-5s1.6-5 3.5-5c2 0 3.5 2.2 3.5 5zm28.2 0c0 2.8-1.6 5-3.5 5-2 0-3.5-2.2-3.5-5s1.5-5 3.5-5c1.9 0 3.5 2.2 3.5 5zM56.3 46.1a1.3 1.3 0 100-2.6 1.3 1.3 0 000 2.6zM53.2 48.1c0-.2 0-.5.3-.5.2-.1.4 0 .5.2.3 1 1.2 1.6 2.2 1.6 1 0 2-.6 2.3-1.6 0-.2.3-.3.5-.2.3 0 .4.3.3.5a3.2 3.2 0 01-6 0h-.1z" />
  <path fill="#C3E4D8"
    d="M24.1 54.1c0 .4-.4.7-1 .7-.4 0-.8-.3-.8-.7 0-.3.4-.6.9-.6s.9.3.9.6zm2.5 1.5c0 .3-.4.6-.9.6s-.9-.3-.9-.6c0-.4.4-.7 1-.7.4 0 .8.3.8.7zm1.6 1.8c0 .3-.4.6-1 .6-.4 0-.8-.3-.8-.6 0-.4.4-.6.9-.6s.9.2.9.6zm1.4 2.1c0 .4-.4.6-1 .6-.4 0-.8-.2-.8-.6 0-.3.4-.6.9-.6s.9.3.9.6zm1.5 2c0 .3-.4.6-.9.6s-.9-.3-.9-.6c0-.4.4-.6 1-.6.4 0 .8.2.8.6zm2.2 1.7c0 .3-.5.6-1 .6s-.9-.3-.9-.6c0-.4.4-.7 1-.7.4 0 .9.3.9.7zm3 1.1c0 .4-.5.6-1 .6s-1-.2-1-.6c0-.3.5-.6 1-.6s1 .3 1 .6zm2.9 0c0 .4-.5.6-1 .6s-.9-.2-.9-.6c0-.3.4-.6 1-.6.4 0 .9.3.9.6zm3-.5c0 .4-.5.7-1 .7s-.9-.3-.9-.7c0-.3.4-.6 1-.6.4 0 .8.3.8.6z" />
  <path fill="#9CDAF1" d="M20.7 56l-.9 3.2s-.2 1.2.9 1.4c1.1 0 1-1.1 1-1.4l-1-3.2z" />
  <path fill="url(#paint0_linear)"
    d="M76 68.2C76 60.3 82.3 54 90.2 54h46.6c7.9 0 14.2 6.3 14.2 14.2v45.2c0 7.8-6.3 14.2-14.2 14.2H90.2c-7.9 0-14.2-6.4-14.2-14.2V68.2z" />
  <path fill="#fff" fill-rule="evenodd"
    d="M136.8 57H90.2C84 57 79 62 79 68.2v45.2c0 6.2 5 11.2 11.2 11.2h46.6c6.2 0 11.2-5 11.2-11.2V68.2c0-6.2-5-11.2-11.2-11.2zm-46.6-3C82.3 54 76 60.3 76 68.2v45.2c0 7.8 6.3 14.2 14.2 14.2h46.6c7.9 0 14.2-6.4 14.2-14.2V68.2c0-7.9-6.3-14.2-14.2-14.2H90.2z"
    clip-rule="evenodd" />
  <mask id="a" width="75" height="74" x="76" y="54" maskUnits="userSpaceOnUse">
    <path fill="#C4C4C4"
      d="M76 68.2C76 60.3 82.3 54 90.2 54h46.6c7.9 0 14.2 6.3 14.2 14.2v45.2c0 7.8-6.3 14.2-14.2 14.2H90.2c-7.9 0-14.2-6.4-14.2-14.2V68.2z" />
  </mask>
  <g fill="#fff" fill-rule="evenodd" clip-rule="evenodd" mask="url(#a)">
    <path
      d="M123.8 65.4c.7 1.3.2 3-1.1 3.8l-29 16.3c-1 .5-2 .5-2.8 0L76 77a2.8 2.8 0 012.8-5l13.5 7.8 27.6-15.5c1.4-.8 3-.3 3.9 1z" />
    <path
      d="M123.8 76.7c.7 1.3.2 3-1.1 3.8l-29 16.3c-1 .5-2 .5-2.8 0L76 88.3a2.8 2.8 0 012.8-5l13.5 7.8 27.6-15.5c1.4-.8 3-.3 3.9 1z" />
    <path
      d="M123.8 88c.7 1.4.2 3-1.1 3.8l-29 16.3c-1 .5-2 .5-2.8 0L76 99.6a2.8 2.8 0 012.8-4.9l13.5 7.7 27.6-15.5c1.4-.8 3-.3 3.9 1z" />
  </g>
  <defs>
    <linearGradient id="paint0_linear" x1="113.5" x2="113.5" y1="54" y2="127.6" gradientUnits="userSpaceOnUse">
      <stop stop-color="#FD6561" />
      <stop offset="1" stop-color="#CD3B2E" />
    </linearGradient>
  </defs>
</svg>