<svg xmlns="http://www.w3.org/2000/svg" fill="none" viewBox="0 0 59 67">
  <defs />
  <path fill="url(#paint0_linear)" d="M22.2 8.5l-8-7.8.2-.6s2.5-.8 8.2 3c2-.5 4.1-.8 6.2-.9l-6.6 6.3z" />
  <path fill="url(#paint1_linear)"
    d="M14 7.8c-.2-.5-.6-2-.5-3.8l7 6.8a2.6 2.6 0 003.3 0l9-8.5 2.8.4-13.7 12.7L14 7.8z" />
  <path fill="url(#paint2_linear)"
    d="M45 .6L21.9 22.5l-10.3-9.9c.2-.8.5-1.6 1-2.3l7.7 7.4c.5.4 1 .7 1.7.7.5 0 1.1-.3 1.6-.7L42.3.3C44-.2 44.8.1 44.8.1l.3.5z" />
  <path fill="url(#paint3_linear)"
    d="M48.8 16c0 2.5-.1 4.8-.6 6.7v.2l-.5 1.2v.2c-1.7 3.6-5.2 6-12.3 6.6-1.7.2-9 0-10.2 0-6.8-.6-10.6-3-12.5-6.6l-.1-.2-.5-1.2-.1-.3c-.7-1.9-1-4-1-6.5l9.2 8.7c.4.4 1 .6 1.6.6.6 0 1.2-.2 1.6-.6L45.7 3.9c.2 1.6-.1 2.9-.3 3.6 2.1 2.1 3.4 5 3.4 8.6z" />
  <path fill="url(#paint4_linear)"
    d="M6.1 54H3.7v-9.5H.1V42h9.6v2.4H6V54zm11.8-4.5a4.8 4.8 0 01-1.3 3.3c-.4.4-1 .8-1.5 1a4.4 4.4 0 01-5-1 4.7 4.7 0 01-1.3-3.3 4.9 4.9 0 011.3-3.4 4.6 4.6 0 016.5 0c.4.4.7.9 1 1.5.2.5.3 1.2.3 1.9zm-2.3 0a2.6 2.6 0 00-.7-1.8 2.2 2.2 0 00-1.6-.7 2.2 2.2 0 00-1.5.7l-.5.8-.2 1a2.6 2.6 0 00.7 1.7l.7.5.8.2a2.2 2.2 0 002.1-1.4l.2-1zM27.7 54h-.5l-.9-1.2a7.5 7.5 0 01-1.4 1l-.9.3h-.8a4.5 4.5 0 01-3.2-1.3 4.7 4.7 0 01-1.3-3.3A4.8 4.8 0 0120 46a4.6 4.6 0 013.2-1.3 4 4 0 011.2.2l.6.3.5.4v-4.1h2.2V54zm-2.2-4.5l-.2-1a2.5 2.5 0 00-1.2-1.2c-.3-.2-.6-.2-1-.2l-.8.1a2 2 0 00-1.2 1.3 2.8 2.8 0 000 2l.5.7.7.5a2 2 0 002.5-.5 2.6 2.6 0 00.7-1.7zm12.6 0a4.8 4.8 0 01-1.4 3.3c-.4.4-.9.8-1.4 1-.6.2-1.2.4-1.8.4a4.4 4.4 0 01-3.2-1.4 4.7 4.7 0 01-1.3-3.3 4.9 4.9 0 011.3-3.4 4.6 4.6 0 016.4 0c.4.4.8.9 1 1.5.2.5.4 1.2.4 1.9zm-2.3 0a2.6 2.6 0 00-.7-1.8 2.2 2.2 0 00-1.6-.7 2.2 2.2 0 00-1.6.7l-.4.8c-.2.3-.2.6-.2 1a2.6 2.6 0 00.6 1.7l.7.5 1 .2a2.2 2.2 0 002-1.4l.2-1zm6.2-6.8l-.1.6a1.5 1.5 0 01-1.4 1l-.6-.2c-.2 0-.4-.2-.5-.3-.2-.2-.3-.3-.3-.5a1.5 1.5 0 010-1.2c0-.2.1-.3.3-.5a1.5 1.5 0 011-.4l.6.1a1.5 1.5 0 01.9.8v.6zM41.6 54h-2.3v-8.9h2.3V54zm6.6 0H43v-2.3h5.2l.4-.1.2-.4c0-.2 0-.3-.2-.3a1 1 0 00-.4-.1H46a2.7 2.7 0 01-2-.8 2.8 2.8 0 01-.8-2 2.8 2.8 0 01.8-2c.2-.3.5-.5.8-.6L46 45h4.5v2.3H46c-.2 0-.3 0-.4.2-.2 0-.2.2-.2.3 0 .2 0 .3.2.5l.4.1h2.3a3 3 0 012 .8 2.6 2.6 0 01.8 1.9 2.7 2.7 0 01-.8 2l-.9.6-1 .2zm8.5 0a3.9 3.9 0 01-2.8-1.2c-.4-.3-.7-.8-.9-1.2-.2-.5-.3-1-.3-1.6v-2.6h-1V45h1v-3.5H55V45h3.4v2.3H55V50a1.7 1.7 0 001.7 1.7h1.7V54h-1.7z" />
  <path fill="url(#paint5_linear)"
    d="M6.2 64l2.3-6.3h1.3l2.3 6.3H11l-.5-1.5H7.9L7.4 64H6.2zm2-2.4h1.9L9 59l-.9 2.6zm9.8 2.5c-.7 0-1.2-.1-1.7-.4-.4-.3-.8-.7-1-1.1-.3-.5-.4-1.1-.4-1.7 0-.7.1-1.3.4-1.7.2-.5.6-1 1-1.2.5-.3 1-.4 1.7-.4a3 3 0 011.8.6c.5.3.8.9 1 1.5h-1.3L19 59c-.3-.2-.6-.3-1-.3-.6 0-1 .2-1.4.6-.3.4-.5 1-.5 1.7 0 .6.2 1.2.5 1.6.3.4.8.6 1.4.6.4 0 .7-.1 1-.3.2-.2.4-.4.5-.8h1.2c0 .7-.4 1.2-.9 1.6a3 3 0 01-1.8.5zm7.7-.1v-5.4H24v-.9h4.8v1H27V64h-1.2zm6.4 0v-6.3h1.2V64H32zm8 .1c-.7 0-1.3-.1-1.7-.4a3 3 0 01-1.1-1.1c-.3-.5-.4-1.1-.4-1.8 0-.6 0-1.2.4-1.6a3 3 0 012.7-1.6c.6 0 1.2.1 1.7.4.4.3.8.7 1 1.2.3.4.5 1 .5 1.6 0 .7-.2 1.3-.4 1.8a3.2 3.2 0 01-2.8 1.6zm0-1c.5 0 1-.2 1.4-.6.3-.4.5-1 .5-1.6 0-.7-.2-1.3-.5-1.7-.4-.4-.9-.6-1.5-.6s-1 .2-1.4.6c-.4.4-.6 1-.6 1.6 0 .7.2 1.3.6 1.7.3.4.8.6 1.4.6zm6.7.9v-6.3h1.1l3 4.4v-4.4H52V64H51l-3-4.4V64h-1.1z" />
  <defs>
    <linearGradient id="paint0_linear" x1="21.5" x2="21.5" y1="0" y2="8.5" gradientUnits="userSpaceOnUse">
      <stop stop-color="#FD6561" />
      <stop offset="1" stop-color="#CD3B2E" />
    </linearGradient>
    <linearGradient id="paint1_linear" x1="24.5" x2="24.5" y1="2.3" y2="15.4" gradientUnits="userSpaceOnUse">
      <stop stop-color="#FD6561" />
      <stop offset="1" stop-color="#CD3B2E" />
    </linearGradient>
    <linearGradient id="paint2_linear" x1="28.3" x2="28.3" y1="0" y2="22.5" gradientUnits="userSpaceOnUse">
      <stop stop-color="#FD6561" />
      <stop offset="1" stop-color="#CD3B2E" />
    </linearGradient>
    <linearGradient id="paint3_linear" x1="29.9" x2="29.9" y1="3.9" y2="31" gradientUnits="userSpaceOnUse">
      <stop stop-color="#FD6561" />
      <stop offset="1" stop-color="#CD3B2E" />
    </linearGradient>
    <linearGradient id="paint4_linear" x1="29.5" x2="29.5" y1="37" y2="58" gradientUnits="userSpaceOnUse">
      <stop stop-color="#FD6561" />
      <stop offset="1" stop-color="#CD3B2E" />
    </linearGradient>
    <linearGradient id="paint5_linear" x1="29.5" x2="29.5" y1="55" y2="67" gradientUnits="userSpaceOnUse">
      <stop stop-color="#FD6561" />
      <stop offset="1" stop-color="#CD3B2E" />
    </linearGradient>
  </defs>
</svg>