<svg xmlns="http://www.w3.org/2000/svg" fill="none" viewBox="0 0 380 194">
  <defs />
  <path fill="#000"
    d="M191.3 87h-12.8V58.8H168V46.7h33.9v12.1h-10.6V87zm11.2-14.7c0-2.1.4-4 1.2-6a16.3 16.3 0 0129.5 0 14.2 14.2 0 010 11.8 15.4 15.4 0 01-8.5 8.3 16.4 16.4 0 01-17.7-3.3c-1.3-1.4-2.5-3-3.3-4.9-.8-1.8-1.2-3.8-1.2-6zm20.5 0c0-1.5-.5-2.6-1.3-3.5-.9-.9-2-1.3-3.2-1.3-1.3 0-2.4.4-3.2 1.3-.9.9-1.3 2-1.3 3.5 0 1.4.4 2.6 1.3 3.5.8.9 1.9 1.3 3.2 1.3 1.3 0 2.3-.4 3.2-1.3.8-.9 1.3-2 1.3-3.5zm27.8 15.3a11 11 0 01-4.9-1.1 14.3 14.3 0 01-7.1-8c-.8-1.9-1.1-4-1.1-6.2a16.9 16.9 0 014-11c1.2-1.4 2.6-2.5 4.2-3.2a12 12 0 0110.4.1c.8.4 1.4.8 1.8 1.3V46.7h11.6V87H261l-1.6-2.9a12 12 0 01-8.6 3.5zm7.3-15.3c0-1.5-.4-2.6-1.2-3.5-.9-.9-2-1.3-3.2-1.3-1.3 0-2.4.4-3.2 1.3-.9.9-1.3 2-1.3 3.5 0 1.4.4 2.6 1.3 3.5.8.9 1.9 1.3 3.2 1.3 1.2 0 2.3-.4 3.2-1.3.8-.9 1.2-2 1.2-3.5zm15.8 0c0-2.1.4-4 1.2-6a16.3 16.3 0 0129.5 0 14.2 14.2 0 010 11.8 15.4 15.4 0 01-8.5 8.3c-2 .8-4 1.2-6.3 1.2a16.4 16.4 0 01-11.3-4.5 14.8 14.8 0 01-4.6-10.8zm20.4 0c0-1.5-.4-2.6-1.3-3.5-.8-.9-1.9-1.3-3.1-1.3-1.3 0-2.4.4-3.3 1.3-.8.9-1.2 2-1.2 3.5 0 1.4.4 2.6 1.3 3.5.8.9 1.9 1.3 3.2 1.3 1.2 0 2.3-.4 3.2-1.3.8-.9 1.2-2 1.2-3.5zM321.5 87H310V57.6h11.5V87zm-11.8-37.8c0-1.6.5-3 1.6-4a6.1 6.1 0 014.5-1.7c1.8 0 3.2.5 4.3 1.6a5.5 5.5 0 011.7 4.1c0 1.7-.5 3-1.7 4.1a5.9 5.9 0 01-4.3 1.7c-1.8 0-3.3-.6-4.5-1.7a5.6 5.6 0 01-1.6-4zm26.2 27.9c0 .4.2.9.6 1.3.5.4 1 .6 1.6.6 1.5 0 2.3-.5 2.3-1.6 0-.3-.4-.6-1.1-.8a15 15 0 01-9.9-3.1c-1-.7-2-1.6-2.6-2.8-.8-1-1.1-2.5-1.1-4.2a8 8 0 01.8-3.5 9.7 9.7 0 012.6-3c1-1 2.4-1.7 4-2.2a20.9 20.9 0 0111.1-.1c1.7.4 3 1 4.2 1.8a9 9 0 012.6 3c.7 1.1 1.2 2.3 1.5 3.7l-10.8 1.3c0-.5-.2-1-.5-1.3-.3-.4-.8-.6-1.5-.6-.4 0-.8 0-1.1.3-.3.3-.5.6-.5 1 0 .3.4.5 1.1.7a669.6 669.6 0 016.3 1.5c1.3.4 2.5 1 3.5 1.7 1.1.7 2 1.6 2.8 2.7.7 1.1 1 2.5 1 4.2 0 1.3-.2 2.5-.8 3.7a9.8 9.8 0 01-2.7 3.2c-1 1-2.5 1.7-4.1 2.2a25 25 0 01-11.8.2 11 11 0 01-8.4-8.6L336 77zm34.6-4.2c0 2.6 1.1 3.9 3.5 3.9h.9a22.7 22.7 0 001.3-.4v10.3a32.9 32.9 0 01-3.3.8l-2.1.1c-3.7 0-6.6-1-8.7-3.1-2.1-2.1-3.2-5.1-3.2-9v-7.7h-4.1v-9.6h2.2c1 0 1.8-.3 2.3-.8.6-.6 1-1.4 1-2.4v-4.5h10.2v7h5.7v10.3h-5.7v5.1zm-181.1 40.3h20.8V135h-8l-1.6-3.8c-.8.8-1.7 1.6-2.8 2.2a17 17 0 01-9 2.2c-2.7 0-5.2-.5-7.6-1.6a21.4 21.4 0 01-10.7-11c-1-2.5-1.6-5.3-1.6-8.2a20.4 20.4 0 0112.8-19.1 23.5 23.5 0 0118.6.6 18.1 18.1 0 019.6 11.8l-12.8 1.3c-.5-.6-1-1.1-1.7-1.6-.6-.4-1.4-.7-2.3-1a8.3 8.3 0 00-8.9 2 8.6 8.6 0 00-2.5 6 9 9 0 00.7 3.4c.4 1 1 2 1.8 2.8.8.8 1.7 1.4 2.6 1.8a8.5 8.5 0 005.9.3 9.2 9.2 0 003.7-2.2h-7v-7.7zm37.4 21.8h-11.5v-29.4h11.5V135zM215 97.2c0-1.6.5-3 1.7-4a6.1 6.1 0 014.4-1.7c1.8 0 3.2.5 4.3 1.6a5.5 5.5 0 011.8 4.1c0 1.7-.6 3-1.8 4.1a5.9 5.9 0 01-4.3 1.7c-1.8 0-3.3-.6-4.4-1.7a5.6 5.6 0 01-1.7-4zm31 23.7c0 2.6 1.2 3.9 3.5 3.9h1a22.1 22.1 0 001.3-.4v10.3a32 32 0 01-3.3.8l-2.2.1c-3.7 0-6.6-1-8.7-3.1-2-2.1-3.1-5.1-3.1-9v-7.7h-4.2v-9.6h2.3c1 0 1.7-.3 2.3-.8.6-.6.9-1.4.9-2.4v-4.5H246v7h5.8v10.3H246v5.1zm30.8-16a10.9 10.9 0 018 3.4 12 12 0 012.3 4c.6 1.6.9 3.4.9 5.4V135h-11.6v-14.7c0-1.3-.3-2.3-1-3a3.2 3.2 0 00-2.5-1.2c-1 0-2 .4-2.7 1.2a4 4 0 00-1.1 3V135h-11.5V94.7H269v13.1a12.4 12.4 0 017.7-2.9zm27.8 30.7a11 11 0 01-11-7.4c-.6-1.6-.9-3.4-.9-5.4v-17.2h11.6v14.7c0 1.3.3 2.3 1 3 .7.8 1.5 1.1 2.5 1.1 1.1 0 2-.3 2.7-1 .8-.8 1.1-1.8 1.1-3.1v-14.7h11.5V135h-8.3l-1.6-2.9a12 12 0 01-8.6 3.5zm42.5 0a12 12 0 01-8.6-3.5l-1.6 2.9h-8.7V94.7h11.6v12.8c.4-.5 1-1 1.7-1.3a10 10 0 012.3-.9c1-.3 2-.4 3.3-.4 1.7 0 3.3.4 4.9 1.2a14.6 14.6 0 017.1 8 16 16 0 011.1 6.2 16.2 16.2 0 01-4 11 13.6 13.6 0 01-4.2 3.2 11 11 0 01-4.9 1.1zm-7.3-15.3c0 1.4.4 2.6 1.2 3.5.9.9 2 1.3 3.2 1.3 1.3 0 2.4-.4 3.2-1.3.9-.9 1.3-2 1.3-3.5s-.4-2.6-1.3-3.5c-.8-.9-1.9-1.3-3.2-1.3-1.2 0-2.3.4-3.2 1.3-.8.9-1.2 2-1.2 3.5zM187.5 156l-2.6 9.6h5.1l-2.5-9.6zM182 176l-1.9 7h-13.7l13.4-40.3h15.4l13.4 40.3h-13.8l-1.9-7H182zm43.5-23c1.7 0 3.2 0 4.5.4a13.7 13.7 0 016.3 3.4c.8.7 1.4 1.4 2 2.2 1.3 1.8 2.1 3.8 2.6 6l-11.2 1.4a5 5 0 00-.9-1.4c-.3-.4-.8-.7-1.3-1-.5-.3-1.2-.5-2-.5-1.2 0-2.3.4-3.2 1.3-.8.9-1.2 2-1.2 3.5s.4 2.6 1.2 3.5c.9.9 2 1.3 3.2 1.3.8 0 1.5-.2 2-.5s1-.6 1.3-1c.4-.4.7-.8.9-1.4l11.2 1.3a15.3 15.3 0 01-7.3 10.3 18 18 0 01-14.4.6 16.3 16.3 0 01-8.4-8.2 14.8 14.8 0 010-11.8c.8-1.9 2-3.5 3.3-5a16.3 16.3 0 0111.4-4.5zm33.3 16c0 2.5 1.2 3.8 3.5 3.8h1a22.7 22.7 0 001.3-.4v10.3a32.9 32.9 0 01-3.3.8l-2.2.1c-3.7 0-6.6-1-8.7-3.1-2-2.1-3-5.1-3-9v-7.7H243v-9.6h2.3c1 0 1.7-.3 2.3-.8.6-.6.9-1.4.9-2.4v-4.5h10.2v7h5.8v10.3h-5.8v5.1zm23 14h-11.4v-29.4h11.5V183zm-11.7-37.8c0-1.6.5-3 1.6-4a6.1 6.1 0 014.4-1.7c1.8 0 3.3.5 4.4 1.6a5.5 5.5 0 011.7 4.1c0 1.7-.6 3-1.7 4.1a5.9 5.9 0 01-4.4 1.7c-1.8 0-3.2-.6-4.4-1.7a5.6 5.6 0 01-1.6-4zm16 23c0-2 .3-4 1.2-5.8.8-1.9 2-3.5 3.3-5a16.3 16.3 0 0126.2 5c.8 1.8 1.2 3.8 1.2 5.9 0 2-.4 4-1.2 6a15.4 15.4 0 01-8.5 8.1c-2 .8-4 1.2-6.3 1.2a16.4 16.4 0 01-11.4-4.5c-1.4-1.4-2.5-3-3.3-4.9-.9-1.8-1.3-3.8-1.3-6zm20.4 0c0-1.4-.4-2.5-1.3-3.4-.8-.9-1.9-1.3-3.2-1.3-1.2 0-2.3.4-3.2 1.3-.8.9-1.2 2-1.2 3.5 0 1.4.4 2.6 1.2 3.5.9.9 2 1.3 3.2 1.3 1.3 0 2.4-.4 3.2-1.3.9-.9 1.3-2 1.3-3.5zm34.2-15.3c1.8 0 3.4.3 4.8 1 1.5.5 2.7 1.3 3.8 2.4a11 11 0 012.4 4c.6 1.6.9 3.4.9 5.4V183H341v-14.7c0-1.3-.4-2.3-1-3a3.2 3.2 0 00-2.6-1.2c-1 0-2 .4-2.7 1.2a4 4 0 00-1.1 3V183h-11.5v-29.4h8.3l1.6 2.8a13.6 13.6 0 015-2.9c1-.4 2.3-.6 3.6-.6z" />
  <path fill="#fff"
    d="M191.3 87v3h3v-3h-3zm-12.8 0h-3v3h3v-3zm0-28.2h3v-3h-3v3zm-10.5 0h-3v3h3v-3zm0-12.1v-3h-3v3h3zm33.9 0h3v-3h-3v3zm0 12.1v3h3v-3h-3zm-10.6 0v-3h-3v3h3zm0 25.2h-12.8v6h12.8v-6zm-9.8 3V58.8h-6V87h6zm-3-31.2H168v6h10.5v-6zm-7.5 3V46.7h-6v12.1h6zm-3-9.1h33.9v-6h-34v6zm30.9-3v12.1h6V46.7h-6zm3 9.1h-10.6v6H202v-6zm-13.6 3V87h6V58.8h-6zm15.4 7.6l-2.7-1.2 2.7 1.2zm3.4-5l-2.1-2 2 2zm5-3.3l-1.1-2.7L212 58zm12.6 0l1.2-2.7-1.2 2.7zm5.1 3.4l-2.1 2v.1l2.1-2.1zm3.4 4.9l-2.8 1.2 2.8-1.2zm0 11.8l-2.7-1.2 2.7 1.2zm-3.4 4.9l-2-2.2h-.1l2.1 2.2zm-5 3.3l-1.2-2.7 1.1 2.7zm-12.7 0l-1.1 2.8 1.1-2.8zm-5-3.3l-2.1 2.1 2-2.1zm-3.4-4.9l-2.8 1.2v.1l2.8-1.3zm18-9.4l-2.2 2v.1l2.2-2zm-6.4 0l2.1 2.1-2.1-2zm0 7l-2.2 2v.1l2.2-2.1zm6.4 0l2.1 2.1-2.1-2.1zm-16.2-3.5c0-1.7.3-3.3 1-4.7l-5.6-2.4c-1 2.2-1.4 4.6-1.4 7h6zm1-4.7c.6-1.5 1.6-2.9 2.7-4l-4.2-4.3c-1.7 1.7-3 3.7-4 5.9l5.4 2.4zm2.7-4c1.1-1.1 2.5-2 4.1-2.7l-2.3-5.5c-2.3 1-4.3 2.2-6 4l4.2 4.2zm4-2.7c1.7-.6 3.4-1 5.3-1v-6c-2.7 0-5.2.5-7.5 1.5l2.3 5.5zm5.3-1c1.8 0 3.5.4 5.1 1l2.3-5.5c-2.3-1-4.8-1.5-7.4-1.5v6zm5.1 1c1.6.7 3 1.6 4 2.7l4.3-4.3c-1.7-1.7-3.7-3-6-4l-2.3 5.6zm4.1 2.7c1.2 1.1 2 2.5 2.7 4l5.5-2.4c-1-2.2-2.3-4.2-4-5.9l-4.2 4.3zm2.8 4c.6 1.5 1 3 1 4.7h6c0-2.5-.5-5-1.6-7.2l-5.4 2.6zm1 4.7c0 1.6-.4 3.2-1 4.7l5.4 2.5c1-2.3 1.6-4.7 1.6-7.2h-6zm-1 4.7c-.7 1.5-1.6 2.8-2.8 4l4.2 4.2c1.7-1.6 3-3.6 4-5.8l-5.4-2.4zm-2.8 4c-1.1 1-2.5 2-4.1 2.7l2.3 5.5c2.3-1 4.3-2.3 6-4l-4.2-4.2zm-4.1 2.7c-1.6.6-3.3 1-5.1 1v6c2.6 0 5-.5 7.4-1.5l-2.3-5.5zm-5.1 1c-2 0-3.6-.4-5.2-1l-2.3 5.5c2.3 1 4.8 1.4 7.5 1.4v-6zm-5.2-1c-1.6-.7-3-1.6-4.1-2.8l-4.2 4.3c1.7 1.7 3.7 3 6 4l2.3-5.5zm-4.1-2.7a14 14 0 01-2.8-4l-5.4 2.5c1 2.1 2.3 4 4 5.7l4.2-4.2zm-2.8-4c-.6-1.5-1-3-1-4.7h-6c0 2.5.6 4.9 1.5 7.1l5.5-2.4zm19.6-4.7c0-2-.7-4-2.2-5.6l-4.2 4.2c.1.2.4.6.4 1.4h6zm-2.2-5.5a7.2 7.2 0 00-5.3-2.3v6c.5 0 .7.1 1 .4l4.3-4.1zm-5.3-2.3c-2 0-4 .7-5.4 2.3l4.3 4c.3-.2.6-.3 1-.3v-6zm-5.3 2.2a7.7 7.7 0 00-2.2 5.6h6c0-.8.2-1.2.4-1.4l-4.2-4.2zm-2.2 5.6c0 2 .6 4 2.1 5.6l4.3-4.2c-.2-.2-.4-.6-.4-1.4h-6zm2.2 5.6a7.3 7.3 0 005.3 2.2v-6c-.6 0-.8-.2-1.1-.4l-4.2 4.2zm5.3 2.2c2 0 3.8-.7 5.3-2.2l-4.2-4.2c-.3.2-.6.4-1.1.4v6zm5.3-2.2a7.9 7.9 0 002.2-5.6h-6c0 .8-.3 1.2-.5 1.4l4.3 4.2zm22.1 8.6l1.3-2.7-1.3 2.7zm-4.2-3.1l-2.3 2h.1l2.2-2zm-3-5l-2.7 1.2 2.8-1.1zm0-12.3l-2.7-1 2.8 1zm3-4.8l-2.2-2 2.2 2zm4.2-3.2l1.3 2.7L246 58zm8.1-.8l-.8 2.9.8-2.9zm2.4.9l-1.5 2.6 1.5-2.6zm1.7 1.3l-2 2.1 5 5.1v-7.2h-3zm0-12.8v-3h-3v3h3zm11.6 0h3v-3h-3v3zm0 40.3v3h3v-3h-3zm-8.7 0l-2.6 1.5.9 1.5h1.7v-3zm-1.6-2.9l2.6-1.4-1.9-3.5-2.8 2.8 2.1 2.1zm-2.3 1.8l-1.5-2.6h-.1L257 86zm-2.7 1.2l-.9-2.8 1 2.8zm2.5-18.3l-2.2 2v.1l2.2-2zm-6.4 0l2 2.1h.1l-2.1-2zm0 7l-2.2 2v.1l2.2-2.1zm6.4 0l2 2.1h.1l-2.1-2.1zm-6.1 8.8a8 8 0 01-3.6-.8l-2.6 5.4c2 1 4 1.4 6.2 1.4v-6zm-3.6-.8c-1.2-.6-2.3-1.4-3.3-2.5l-4.4 4.1c1.5 1.6 3.2 2.9 5.1 3.8l2.6-5.4zm-3.2-2.4c-1-1.1-1.8-2.4-2.5-4l-5.5 2.2c.9 2.2 2 4 3.4 5.7l4.6-4zm-2.5-4a14 14 0 01-.8-5.1h-6c0 2.6.4 5 1.3 7.3l5.5-2.2zm-.8-5.1c0-2 .3-3.6.8-5L236 65a20 20 0 00-1.3 7.2h6zm.8-5c.7-1.7 1.5-3 2.4-4l-4.4-4A19 19 0 00236 65l5.5 2.3zm2.4-4c1-1.1 2.1-2 3.3-2.5l-2.6-5.4c-2 1-3.6 2.2-5.1 3.9l4.4 4zm3.3-2.5a8 8 0 013.6-.9v-6a14 14 0 00-6.2 1.5l2.6 5.4zm3.6-.9a9 9 0 012.4.3l1.7-5.8a15 15 0 00-4.1-.5v6zm2.5.3l1.6.6 3-5.2-3-1.2-1.6 5.8zm1.6.7c.6.2 1 .5 1.1.7l4.3-4.2c-.8-.8-1.6-1.4-2.5-1.9l-2.9 5.4zm6.2-1.4V46.7h-6v12.8h6zm-3-9.8h11.6v-6H258v6zm8.6-3V87h6V46.7h-6zm3 37.3H261v6h8.7v-6zm-6 1.5l-1.7-2.8-5.2 2.9 1.6 2.9 5.2-3zm-6.4-3.5c-.5.5-1 1-1.7 1.3l3 5.2c1.1-.6 2-1.4 3-2.3l-4.3-4.2zm-1.8 1.4l-2 .9 1.8 5.7c1.3-.4 2.4-1 3.4-1.6l-3.2-5zm-2 .9a9 9 0 01-2.7.3v6a15 15 0 004.5-.6l-1.8-5.7zm7.6-12c0-2-.6-4-2.1-5.6l-4.3 4.2c.2.2.4.6.4 1.4h6zm-2-5.5a7.2 7.2 0 00-5.4-2.3v6c.5 0 .7.1 1 .4l4.3-4.1zm-5.4-2.3c-2.1 0-4 .7-5.4 2.3l4.3 4c.3-.2.6-.3 1-.3v-6zm-5.4 2.2a7.7 7.7 0 00-2.1 5.6h6c0-.8.2-1.2.4-1.4l-4.3-4.2zm-2.1 5.6c0 2 .6 4 2 5.6l4.4-4.2c-.2-.2-.4-.6-.4-1.4h-6zm2.1 5.6a7.3 7.3 0 005.4 2.2v-6c-.6 0-.9-.2-1.1-.4l-4.3 4.2zm5.4 2.2c2 0 3.8-.7 5.3-2.2l-4.3-4.2c-.2.2-.5.4-1 .4v6zm5.3-2.2a7.9 7.9 0 002.1-5.6h-6c0 .8-.2 1.2-.4 1.4L259 78zm16-11.5l-2.7-1.2 2.8 1.2zm3.5-5l-2.1-2 2 2zm5-3.3l-1.1-2.7 1.1 2.7zm12.6 0l1.2-2.7L296 58zm5 3.4l-2 2v.1l2-2.1zm3.5 4.9l-2.8 1.2 2.8-1.2zm0 11.8l-2.8-1.2 2.8 1.2zm-3.4 4.9l-2.1-2.2 2 2.2zm-5 3.3l-1.2-2.7 1.1 2.7zm-12.7 0l-1.2 2.8 1.2-2.8zm-5-3.3l-2.2 2.1 2.2-2.1zm-3.4-4.9l-2.8 1.2v.1l2.8-1.3zm18-9.4l-2.2 2v.1l2.2-2zm-6.5 0l2.2 2.1-2.2-2zm0 7l-2.1 2v.1l2.1-2.1zm6.4 0l2.2 2.1-2.1-2.1zM277 72.3c0-1.7.3-3.3 1-4.7l-5.6-2.4c-1 2.2-1.4 4.6-1.4 7h6zm.9-4.7c.7-1.5 1.6-2.9 2.8-4l-4.3-4.3c-1.6 1.7-3 3.7-4 5.9l5.5 2.4zm2.7-4c1.2-1.1 2.6-2 4.2-2.7l-2.4-5.5c-2.2 1-4.2 2.2-6 4l4.2 4.2zm4.2-2.7c1.5-.6 3.3-1 5.2-1v-6c-2.7 0-5.2.5-7.5 1.5l2.3 5.5zm5.2-1c1.8 0 3.5.4 5 1l2.4-5.5c-2.4-1-4.9-1.5-7.4-1.5v6zm5 1c1.7.7 3 1.6 4.2 2.7l4.2-4.3c-1.7-1.7-3.7-3-6-4L295 61zm4.2 2.7c1.2 1.1 2 2.5 2.7 4l5.5-2.4c-1-2.2-2.3-4.2-4-5.9l-4.2 4.3zm2.8 4c.6 1.5 1 3 1 4.7h6c0-2.5-.6-5-1.6-7.2l-5.4 2.6zm1 4.7c0 1.6-.4 3.2-1 4.7l5.4 2.5c1-2.3 1.6-4.7 1.6-7.2h-6zm-1 4.7c-.7 1.5-1.6 2.8-2.8 4l4.2 4.2c1.7-1.6 3-3.6 4-5.8l-5.5-2.4zm-2.8 4c-1.2 1-2.5 2-4.1 2.7l2.3 5.5c2.3-1 4.3-2.3 6-4l-4.2-4.2zm-4.1 2.7c-1.6.6-3.3 1-5.1 1v6c2.5 0 5-.5 7.4-1.5l-2.3-5.5zm-5.1 1c-2 0-3.7-.4-5.2-1l-2.3 5.5c2.3 1 4.8 1.4 7.5 1.4v-6zm-5.2-1c-1.6-.7-3-1.6-4.2-2.8l-4.1 4.3c1.7 1.7 3.7 3 6 4l2.3-5.5zm-4.1-2.7a14 14 0 01-2.8-4l-5.5 2.5c1 2.1 2.4 4 4 5.7l4.3-4.2zm-2.8-4c-.6-1.5-1-3-1-4.7h-6c0 2.5.5 4.9 1.5 7.1l5.5-2.4zm19.5-4.7c0-2-.6-4-2.1-5.6l-4.3 4.2c.2.2.4.6.4 1.4h6zm-2-5.5a7.2 7.2 0 00-5.4-2.3v6c.4 0 .7.1 1 .4l4.3-4.1zm-5.4-2.3c-2.1 0-4 .7-5.4 2.3l4.3 4c.3-.2.6-.3 1-.3v-6zm-5.4 2.2a7.7 7.7 0 00-2.1 5.6h6c0-.8.2-1.2.4-1.4l-4.3-4.2zm-2.1 5.6c0 2 .6 4 2 5.6l4.4-4.2c-.2-.2-.4-.6-.4-1.4h-6zm2.1 5.6a7.3 7.3 0 005.4 2.2v-6c-.6 0-.9-.2-1.1-.4l-4.3 4.2zm5.4 2.2c2 0 3.8-.7 5.3-2.2l-4.3-4.2c-.2.2-.5.4-1 .4v6zm5.3-2.2a7.9 7.9 0 002.1-5.6h-6c0 .8-.2 1.2-.4 1.4l4.3 4.2zm26.3 9.1v3h3v-3h-3zM310 87h-3v3h3v-3zm0-29.4v-3h-3v3h3zm11.5 0h3v-3h-3v3zM311.3 45l-2-2.1 2 2.1zm8.8 0l-2.1 2.2 2.1-2.2zm0 8.2l-2-2.1h-.1l2.1 2.1zm-8.8 0l-2 2.2 2-2.2zM321.5 84H310v6h11.5v-6zm-8.5 3V57.6h-6V87h6zm-3-26.4h11.5v-6H310v6zm8.5-3V87h6V57.6h-6zm-5.8-8.4c0-.8.2-1.4.8-2l-4.3-4.2a8.6 8.6 0 00-2.5 6.2h6zm.7-1.9c.5-.5 1.2-.8 2.4-.8v-6c-2.5 0-4.8.8-6.5 2.5l4.1 4.3zm2.4-.8c1 0 1.7.3 2.2.8l4.2-4.3a8.9 8.9 0 00-6.4-2.5v6zm2.2.8c.6.5.8 1.1.8 2h6c0-2.5-.9-4.6-2.6-6.3l-4.2 4.3zm.8 2c0 .8-.2 1.3-.8 1.9l4.2 4.3a8.5 8.5 0 002.6-6.3h-6zm-.8 2c-.5.4-1.1.7-2.2.7v6c2.4 0 4.7-.8 6.4-2.5l-4.2-4.3zm-2.2.7c-1.2 0-1.9-.3-2.4-.8l-4.1 4.3c1.7 1.7 4 2.5 6.5 2.5v-6zm-2.3-.8c-.6-.5-.8-1.1-.8-2h-6c0 2.4.8 4.6 2.5 6.3l4.3-4.3zm22.4 25.9h3v-3.4l-3.3.4.3 3zm.6 1.3l-2 2.1v.1l2-2.2zm2.8-1.8l-.7 3 .7-3zm-2.8-.5l-.7 2.9h.1l.6-3zm-3.5-1l-.8 2.9.8-2.9zm-3.6-1.6l-1.6 2.5 1.6-2.5zm-2.6-2.8l2.5-1.6-2.5 1.6zm-.3-7.7l-2.7-1.4v.1l2.7 1.3zm2.6-3l1.8 2.3-1.8-2.4zm4-2.2l1 2.8-1-2.8zm11.1-.2l-.8 3 .8-3zm4.2 2l-1.8 2.3 1.8-2.4zm2.6 2.9l-2.6 1.4v.1l2.6-1.5zm1.5 3.7l.4 3 3.4-.4-.8-3.3-3 .7zm-10.8 1.3h-3v3.4l3.3-.4-.3-3zm-.5-1.3l-2.5 1.7v.2h.2l2.3-1.9zm-2.6-.3l-2-2.2 2 2.2zm.6 1.7l-.7 3 .7-3zm2.7.6l-.7 3h.2l.5-3zm7.1 2.6l-1.7 2.5h.1l1.6-2.5zm2.8 2.7l2.5-1.6-2.5 1.6zm.2 8l-2.7-1.4 2.7 1.3zm-2.7 3.1l2 2.4-2-2.4zM333.4 87l-.8 2.9.8-2.9zm-4.2-2l-1.8 2.5 1.8-2.4zm-2.7-2.9l-2.6 1.6 2.6-1.6zm-1.5-3.7l-.3-3-3.3.4.7 3.2 3-.6zM333 77c0 1.5.7 2.6 1.5 3.4l4.3-4.2v.2l.2.6h-6zm1.6 3.6c1 .9 2.4 1.3 3.6 1.3v-6h.2l.2.2-4 4.5zm3.6 1.3c1 0 2.4-.2 3.5-1 1.3-.9 1.8-2.3 1.8-3.6h-6l.1-.6.6-.6.3-.2h-.3v6zm5.3-4.6c0-1.4-.8-2.4-1.6-2.9-.6-.4-1.3-.7-1.8-.8l-1.4 5.9c.2 0 0 0-.2-.2-.2-.1-.4-.3-.6-.7-.3-.4-.4-.8-.4-1.3h6zm-3.4-3.7l-2.9-.6L336 79l2.6.6 1.4-5.9zm-2.8-.6l-3.3-.9-1.7 5.8 3.6 1 1.4-5.9zm-3.3-.9c-1-.3-2-.7-2.9-1.3l-3.1 5.2a18 18 0 004.3 1.9l1.7-5.8zM331 71a6.7 6.7 0 01-1.8-1.9l-5 3.3c.9 1.4 2 2.6 3.5 3.6l3.3-5zm-1.8-1.9c-.4-.5-.6-1.3-.6-2.6h-6c0 2.1.4 4.2 1.5 5.9l5-3.3zm-.6-2.6c0-.7.1-1.4.5-2.2l-5.4-2.6a11 11 0 00-1.1 4.8h6zm.5-2.1c.3-.8 1-1.5 1.7-2.1l-3.7-4.7a12.7 12.7 0 00-3.4 4l5.4 2.8zm1.7-2.1c.8-.7 1.9-1.3 3.2-1.7l-2-5.7c-1.9.7-3.5 1.5-5 2.7l3.8 4.7zm3.2-1.7c1.2-.4 2.6-.7 4.4-.7v-6c-2.3 0-4.5.3-6.4 1l2 5.7zm4.4-.7c2 0 3.6.2 4.9.6l1.7-5.8c-2-.5-4.2-.8-6.6-.8v6zm5 .6c1.3.4 2.3.9 3 1.4l3.7-4.7c-1.5-1.2-3.3-2-5.2-2.5l-1.5 5.8zm3.1 1.5a6 6 0 011.8 2l5.2-3a12 12 0 00-3.4-3.9l-3.6 4.9zm1.9 2c.5.9.9 1.8 1.1 3l5.9-1.5a16 16 0 00-2-4.6l-5 3.2zm3.7-.8l-10.9 1.3.7 6 10.9-1.3-.7-6zm-7.5 4.3c0-1.3-.5-2.4-1.3-3.3l-4.5 4-.2-.3v-.4h6zm-1-3c-1-1.4-2.6-2-4-2v6h-.4l-.6-.6 5-3.4zm-4-2c-1 0-2.1.4-3 1.2l3.8 4.5c-.1.2-.3.2-.4.3a1 1 0 01-.4 0v-6zm-3 1.2c-1 .7-1.6 1.8-1.6 3.1h6c0 .3 0 .6-.2.9 0 .3-.3.4-.4.5l-3.9-4.5zm-1.6 3.1c0 1.5.9 2.4 1.6 3 .6.4 1.3.6 1.8.7l1.4-5.8.2.1.7.7c.2.4.3.9.3 1.3h-6zm3.4 3.7l2.7.7 1.4-5.9-2.7-.6-1.4 5.8zm2.9.7l3.2.8 1.8-5.7c-1.4-.4-2.7-.8-4-1l-1 5.9zm3.2.8c1 .3 2 .7 2.7 1.3l3.4-5c-1.3-.9-2.8-1.6-4.3-2l-1.8 5.7zm2.8 1.4c.8.4 1.4 1 1.9 1.7l5-3.2c-1-1.5-2.2-2.7-3.7-3.6l-3.2 5zm1.9 1.7c.3.5.6 1.3.6 2.6h6c0-2.1-.5-4.1-1.6-5.8l-5 3.2zm.6 2.6c0 .8-.2 1.6-.6 2.4l5.3 2.7c.8-1.6 1.3-3.3 1.3-5h-6zm-.6 2.4c-.4.8-1 1.5-1.9 2.2l3.8 4.7c1.5-1.2 2.6-2.6 3.4-4.2l-5.3-2.7zm-1.8 2.2c-.8.6-1.9 1.2-3.3 1.7l2 5.7c1.9-.7 3.6-1.6 5-2.7l-3.7-4.7zm-3.3 1.7c-1.3.4-2.8.6-4.8.6v6c2.4 0 4.7-.3 6.7-1l-1.9-5.6zm-4.8.6a22 22 0 01-5.3-.5l-1.4 5.8c2 .5 4.2.7 6.7.7v-6zm-5.2-.5c-1.4-.4-2.5-.9-3.3-1.5l-3.4 5c1.4 1 3.2 1.7 5 2.3l1.7-5.8zm-3.2-1.4a8 8 0 01-2-2.1l-5 3.1a14 14 0 003.4 3.8l3.6-4.8zm-2-2c-.4-1-.8-2-1-3l-6 1.3c.5 1.7 1 3.2 2 4.7l5-3zm-3.6.6l10.9-1.2-.7-6-11 1.3.8 6zm49.5-4.5v3h.5l-.5-3zm.7-.2l.6 3-.6-3zm.6-.2h3V72l-4.1 1.7 1.1 2.7zm0 10.3l1 2.8 2-.7v-2.1h-3zm-1.5.5l.8 2.9-.8-3zm-1.8.3l-.3-3 .3 3zm-10.8-3l-2.2 2.1 2.2-2.1zm-3.2-16.7h3v-3h-3v3zm-4.1 0h-3v3h3v-3zm0-9.6v-3h-3v3h3zm4.5-.8l-2.1-2.2 2.1 2.2zm1-6.9v-3h-3v3h3zm10.2 0h3v-3h-3v3zm0 7h-3v3h3v-3zm5.7 0h3v-3h-3v3zm0 10.3v3h3v-3h-3zm-5.7 0v-3h-3v3h3zm-3 5.1a7 7 0 001.6 5c1.4 1.4 3.2 1.9 4.9 1.9v-6l-.5-.1c.2.2 0 .1 0-.8h-6zm6.5 6.9H374.9v-6h-.1-.1-.1-.1-.1-.1-.1-.1v6zm1.4 0l.8-.2-1.2-6-.6.2 1 6zm.8-.2l1.1-.4-2.2-5.5h-.1l1.2 5.9zm-3-3.2v10.3h6V76.4h-6zm2 7.5l-1.4.4 1.8 5.8 1.6-.6-2-5.6zm-1.3.4l-1.3.2.7 6 2.2-.4-1.6-5.8zm-1.3.2l-1.8.1v6l2.5-.1-.7-6zm-1.8.1c-3.2 0-5.2-.8-6.6-2.2l-4.3 4.2c2.8 2.8 6.6 4 10.9 4v-6zm-6.6-2.2c-1.4-1.4-2.3-3.6-2.3-7h-6c0 4.5 1.2 8.4 4 11.2l4.3-4.2zm-2.3-7v-7.6h-6v7.7h6zm-3-10.6h-4.1v6h4.1v-6zm-1.1 3v-9.6h-6v9.6h6zm-3-6.6h2.2v-6h-2.2v6zm2.2 0c1.6 0 3.2-.5 4.4-1.7l-4.2-4.3h.1-.3v6zm4.4-1.7a6.2 6.2 0 001.8-4.5h-6a.8.8 0 010 .3l4.2 4.2zm1.8-4.5v-4.5h-6V55h6zm-3-1.5h10.3v-6h-10.3v6zm7.3-3v7h6v-7h-6zm3 10h5.7v-6h-5.7v6zm2.7-3v10.3h6V57.6h-6zm3 7.3h-5.7v6h5.7v-6zm-8.7 3v5.1h6v-5.1h-6zm-178.1 45.4v-3h-3v3h3zm20.8 0h3v-3h-3v3zm0 21.8v3h3v-3h-3zm-8 0l-2.8 1.2.8 1.8h2v-3zm-1.6-3.8l2.8-1.2-1.9-4.4-3.1 3.6 2.2 2zm-2.8 2.2l-1.5-2.6 1.5 2.6zM194 135l.8 2.9-.8-2.9zm-12.9-1l-1.3 2.8 1.3-2.8zm-6.3-4.4l-2.2 2 2.2-2zm-4.4-22.8l-2.7-1.2 2.7 1.2zm4.5-6.7l-2.1-2.1 2.1 2.1zm6.7-4.4l1.2 2.8-1.2-2.8zm14-1l-.7 2.9.7-3zm4.6 1.6l-1.4 2.6 1.4-2.6zm3.4 2.2l-2 2.3h.1l2-2.3zm2.6 2.6L204 103l2.3-2zm3.6 7l.3 3 3.5-.3-1-3.5-2.8.8zm-12.8 1.3l-2.4 1.9 1 1.2 1.7-.1-.3-3zm-1.7-1.6l1.7-2.5h-.1l-1.6 2.5zm-2.3-1l-1.1 2.7 1.1-2.8zm-6.3.1l1.2 2.8-1.2-2.8zm-2.6 1.9l2.1 2-2-2zm-1.8 2.7l-2.8-1.2 2.8 1.2zm0 6.7l-2.8 1.1v.1l2.8-1.2zm1.8 2.8l-2.2 2v.1l2.2-2.1zm2.6 1.8l-1.3 2.7h.1v.1l1.2-2.8zm6 .3l-1-2.9 1 2.9zm2-.9l-1.6-2.6 1.6 2.6zm1.6-1.3l2.2 2.1 5-5h-7.2v3zm-7 0h-3v3h3v-3zm0-4.7h20.8v-6h-20.8v6zm17.8-3V135h6v-21.8h-6zm3 18.8h-8v6h8v-6zm-5.2 1.8l-1.6-3.8-5.6 2.3 1.6 3.9 5.6-2.4zm-6.6-4.6c-.6.5-1.2 1.1-2.1 1.6l3 5.2c1.3-.8 2.5-1.7 3.5-2.8l-4.4-4zm-2.2 1.6c-.7.5-1.7 1-3 1.3l1.8 5.8a20 20 0 004.3-2l-3-5zm-3 1.3c-1 .3-2.5.5-4.4.5v6a22 22 0 006.1-.7l-1.7-5.8zm-4.4.5c-2.3 0-4.4-.4-6.4-1.3l-2.4 5.5c2.8 1.2 5.7 1.8 8.8 1.8v-6zm-6.3-1.3c-2-1-3.9-2.2-5.5-3.8l-4.3 4.2c2.1 2 4.5 3.8 7.2 5l2.6-5.4zm-5.5-3.8a18.1 18.1 0 01-3.7-5.7l-5.5 2.3c1.2 2.9 2.8 5.4 5 7.6l4.2-4.2zm-3.7-5.7c-1-2.1-1.4-4.4-1.4-7h-6c0 3.3.6 6.4 1.9 9.3l5.5-2.3zm-1.4-7c0-2.4.5-4.7 1.4-6.9l-5.5-2.3c-1.3 3-1.9 6-1.9 9.2h6zm1.4-6.8c1-2.3 2.2-4.2 3.8-5.8L173 98a24.3 24.3 0 00-5.1 7.6l5.5 2.4zm3.8-5.7c1.6-1.6 3.6-2.9 5.8-3.8l-2.3-5.6a24.1 24.1 0 00-7.7 5l4.2 4.4zm5.8-3.8A18 18 0 01190 97v-6a24 24 0 00-9.5 2l2.4 5.5zM190 97c2 0 3.6.2 5 .6l1.5-5.8c-2-.5-4.2-.8-6.5-.8v6zm5 .6c1.6.3 2.8.8 3.9 1.3l2.8-5.3a22 22 0 00-5.3-1.8l-1.3 5.8zm4 1.4c1 .5 2 1.1 2.8 1.8l4-4.5c-1.3-1-2.7-2-4.2-2.7L199 99zm2.8 1.8a15 15 0 012.2 2.2l4.6-3.8c-.8-1-1.8-2-3-3l-3.8 4.6zm2.2 2.2a16 16 0 013 6l5.8-1.7a22 22 0 00-4.2-8.1L204 103zm5.6 2.1l-12.8 1.3.6 6 12.8-1.3-.6-6zm-10.2 2.4c-.6-.8-1.4-1.5-2.3-2.2l-3.4 5c.4.3.8.6 1 1l4.7-3.8zm-2.4-2.2c-.8-.6-1.8-1-2.8-1.4l-2.2 5.6 1.7.8 3.3-5zm-2.8-1.4c-1.3-.5-2.7-.7-4.2-.7v6c1 0 1.6.1 2 .3l2.2-5.6zm-4.2-.7c-1.5 0-3 .3-4.4 1l2.5 5.4c.6-.3 1.3-.4 2-.4v-6zm-4.4 1a11 11 0 00-3.6 2.5l4.4 4.1c.5-.5 1-.9 1.6-1.1l-2.4-5.5zm-3.5 2.4a12 12 0 00-2.5 3.7l5.5 2.4a6 6 0 011.2-1.8l-4.2-4.3zm-2.5 3.8c-.6 1.4-.9 2.9-.9 4.4h6c0-.8.2-1.5.4-2.1l-5.5-2.3zm-.9 4.4c0 1.6.3 3.1.9 4.5l5.5-2.2a6 6 0 01-.4-2.3h-6zm1 4.7a13 13 0 002.3 3.5l4.4-4c-.5-.6-1-1.3-1.3-2l-5.5 2.5zm2.4 3.6c1 1 2.2 1.8 3.4 2.4l2.6-5.4-1.8-1.2-4.2 4.2zm3.6 2.5c1.4.6 2.8.9 4.3.9v-6c-.7 0-1.3-.2-2-.4l-2.3 5.5zm4.3.9c1.3 0 2.5-.2 3.7-.6l-2-5.7c-.3.2-.9.3-1.7.3v6zm3.6-.5c1-.4 2-.7 2.7-1.2l-3.1-5.2-1.4.6 1.8 5.8zm2.7-1.2c.8-.5 1.6-1.1 2.3-1.8l-4.3-4.2-1 .8 3 5.2zm.1-6.9h-7v6h7v-6zm-4 3v-7.7h-6v7.7h6zm34.4 14.1v3h3v-3h-3zm-11.5 0h-3v3h3v-3zm0-29.4v-3h-3v3h3zm11.5 0h3v-3h-3v3zM216.7 93l-2.1-2.1 2 2.1zm8.7 0l-2.1 2.2 2.1-2.2zm0 8.2l-2-2.1h-.1l2.1 2.1zm-8.7 0l-2.2 2.2 2.2-2.2zm10.1 30.7h-11.5v6h11.5v-6zm-8.5 3v-29.4h-6V135h6zm-3-26.4h11.5v-6h-11.5v6zm8.5-3V135h6v-29.4h-6zm-5.8-8.4c0-.8.2-1.4.8-2l-4.3-4.2a8.6 8.6 0 00-2.5 6.2h6zm.7-1.9c.6-.5 1.3-.8 2.4-.8v-6c-2.5 0-4.7.8-6.5 2.5l4.1 4.3zm2.4-.8c1 0 1.7.3 2.2.8l4.2-4.3a8.9 8.9 0 00-6.4-2.5v6zm2.2.8c.6.5.8 1.1.8 2h6c0-2.5-.8-4.6-2.6-6.3l-4.2 4.3zm.8 2c0 .8-.2 1.3-.8 1.9l4.2 4.3a8.5 8.5 0 002.7-6.3h-6zm-.8 2c-.5.4-1.1.7-2.2.7v6c2.4 0 4.7-.8 6.4-2.5l-4.2-4.3zm-2.2.7c-1.1 0-1.8-.3-2.4-.8l-4.1 4.3c1.8 1.7 4 2.5 6.5 2.5v-6zm-2.3-.8c-.6-.5-.8-1.1-.8-2h-6c0 2.4.8 4.6 2.5 6.3l4.3-4.3zm31.6 25.6v3h.5l-.5-3zm.7-.2l.6 3-.6-3zm.7-.2h3V120l-4.1 1.7 1 2.7zm0 10.3l1 2.8 2-.7v-2.1h-3zm-1.6.5l.8 2.9h.1l-.9-3zm-1.7.3l-.4-3 .4 3zm-10.9-3l-2.1 2.1 2.1-2.1zm-3.1-16.7h3v-3h-3v3zm-4.2 0h-3v3h3v-3zm0-9.6v-3h-3v3h3zm4.6-.8l-2.1-2.2 2 2.2zm.9-6.9v-3h-3v3h3zm10.2 0h3v-3h-3v3zm0 7h-3v3h3v-3zm5.8 0h3v-3h-3v3zm0 10.3v3h3v-3h-3zm-5.8 0v-3h-3v3h3zm-3 5.1a7 7 0 001.7 5c1.3 1.4 3.1 1.9 4.8 1.9v-6l-.5-.1h.1c.1.2 0 .1 0-.8h-6zm6.5 6.9H250.5v-6H250h-.2-.1-.1-.1v6zm1.4 0l.8-.2-1.2-6-.6.2 1 6zm.8-.2l1.2-.4-2.2-5.5h-.2l1.2 5.9zm-3-3.2v10.3h6v-10.3h-6zm2 7.5l-1.3.4 1.7 5.8 1.7-.6-2-5.6zm-1.3.4l-1.3.2.8 6 2.1-.4-1.6-5.8zm-1.3.2l-1.8.1v6l2.6-.1-.8-6zm-1.8.1c-3.1 0-5.2-.8-6.5-2.2l-4.3 4.2c2.8 2.8 6.5 4 10.8 4v-6zm-6.5-2.2c-1.4-1.4-2.3-3.6-2.3-7h-6c0 4.5 1.2 8.4 4 11.2l4.3-4.2zm-2.3-7v-7.6h-6v7.7h6zm-3-10.6h-4.2v6h4.2v-6zm-1.2 3v-9.6h-6v9.6h6zm-3-6.6h2.3v-6h-2.3v6zm2.3 0a6 6 0 004.4-1.7l-4.2-4.3h-.2v6zm4.4-1.7a6.2 6.2 0 001.8-4.5h-6v.3l4.2 4.2zm1.8-4.5v-4.5h-6v4.5h6zm-3-1.5H246v-6h-10.2v6zm7.2-3v7h6v-7h-6zm3 10h5.8v-6H246v6zm2.8-3v10.3h6v-10.2h-6zm3 7.3H246v6h5.8v-6zm-8.8 3v5.1h6v-5.1h-6zm38.2-10l-1.2 2.8 1.2-2.8zm5.9 6.5l-2.9 1v.1l2.9-1zm.9 22.7v3h3v-3h-3zm-11.6 0h-3v3h3v-3zm-1-17.7l-2.2 2 2.2-2zm-5.2 0l2 2h.1l-2.1-2zM269 135v3h3v-3h-3zm-11.5 0h-3v3h3v-3zm0-40.3v-3h-3v3h3zm11.5 0h3v-3h-3v3zm0 13.1h-3v6.5l5-4.2-2-2.3zm2-1.4l-1.3-2.7h-.1l1.4 2.7zm2.4-1l1 2.9-1-2.9zm3.3 2.5a8 8 0 013.2.7l2.4-5.5c-1.8-.8-3.7-1.2-5.6-1.2v6zm3.3.7c1 .4 1.8 1 2.4 1.7l4.5-4a12.2 12.2 0 00-4.7-3.3l-2.2 5.6zm2.4 1.7a9 9 0 011.7 3l5.7-2a15 15 0 00-2.9-5l-4.5 4zm1.8 3.1c.4 1.2.7 2.6.7 4.3h6c0-2.3-.4-4.4-1.1-6.4l-5.6 2.1zm.7 4.3V135h6v-17.3h-6zm3 14.3h-11.6v6H288v-6zm-8.6 3v-14.7h-6V135h6zm0-14.7c0-1.8-.5-3.7-1.8-5l-4.4 4s.2.2.2 1h6zm-1.7-5a6.2 6.2 0 00-4.8-2.2v6h.1l.2.2 4.5-4zm-4.8-2.2c-1.9 0-3.6.7-5 2.1l4.4 4.1.6-.2v-6zm-4.9 2a7 7 0 00-2 5.2h6c0-.7.3-.9.3-1l-4.3-4.1zm-2 5.2V135h6v-14.7h-6zm3 11.7h-11.4v6H269v-6zm-8.4 3V94.7h-6V135h6zm-3-37.3H269v-6h-11.5v6zm8.5-3v13.1h6V94.7h-6zm5 15.4c.4-.4.9-.7 1.5-1l-3-5.3c-.9.5-1.7 1-2.5 1.7l4 4.6zm1.4-1c.5-.3 1.2-.6 2-.8l-2-5.7-2.7 1.1 2.7 5.4zm2-.8c.6-.2 1.3-.4 2.3-.4v-6c-1.5 0-3 .2-4.3.7l2 5.7zm25.3 26.5l-1.2 2.8h.1l1-2.8zm-3.8-2.6l-2.2 2v.1l2.2-2zm-2.4-4l-2.9 1 2.9-1zm-.9-22.6v-3h-3v3h3zm11.6 0h3v-3h-3v3zm1 17.8l-2.3 2h.1l2.2-2zm5.2 0l2.2 2-2.2-2zm1.1-17.8v-3h-3v3h3zm11.5 0h3v-3h-3v3zm0 29.4v3h3v-3h-3zm-8.3 0l-2.6 1.5.9 1.5h1.7v-3zm-1.6-2.9l2.7-1.4-2-3.5-2.8 2.8 2.1 2.1zM311 134l-1.5-2.6h-.1l1.6 2.6zm-2.7 1.2l-.9-2.8 1 2.8zm-3.6-2.5c-1.4 0-2.7-.2-3.7-.6l-2.2 5.6c1.8.7 3.8 1 5.9 1v-6zm-3.7-.6c-1-.4-2-1-2.7-1.8l-4.4 4.1a14 14 0 004.8 3.3l2.3-5.6zm-2.7-1.8a9.3 9.3 0 01-1.8-3l-5.6 2c.7 2 1.7 3.7 3 5l4.4-4zm-1.8-3c-.4-1.2-.7-2.6-.7-4.4h-6c0 2.3.4 4.5 1 6.4l5.7-2zm-.7-4.4v-17.2h-6v17.2h6zm-3-14.2h11.6v-6h-11.6v6zm8.6-3v14.7h6v-14.7h-6zm0 14.7c0 1.8.5 3.6 1.7 5l4.5-4s-.2-.3-.2-1h-6zm1.8 5.1c1.2 1.3 2.9 2 4.7 2v-6h-.2l-.1-.1-4.4 4.1zm4.7 2c1.8 0 3.5-.6 4.9-2l-4.3-4.2c-.1.1-.2.2-.6.2v6zm5-2c1.3-1.4 1.8-3.2 1.8-5.1h-6c0 .7-.1.9-.2 1l4.3 4.1zm1.8-5.1v-14.7h-6v14.7h6zm-3-11.7h11.5v-6h-11.5v6zm8.5-3V135h6v-29.4h-6zm3 26.4h-8.3v6h8.3v-6zm-5.7 1.5l-1.5-2.8-5.3 2.9 1.6 2.9 5.3-3zm-6.3-3.5c-.5.5-1 1-1.7 1.3l3 5.2c1.1-.7 2-1.4 3-2.3L311 130zm-1.8 1.4c-.5.3-1 .6-2 .9l1.8 5.7c1.3-.4 2.5-1 3.5-1.6l-3.3-5zm-2 .9a9 9 0 01-2.7.3v6a15 15 0 004.5-.6l-1.8-5.7zm36.2 2.8l.9-2.8-1 2.8zm-2.7-1.2l1.6-2.5-1.6 2.5zm-2.3-1.8l2.1-2.1-2.8-2.8-2 3.5 2.7 1.4zm-1.6 2.9v3h1.8l.8-1.5-2.6-1.5zm-8.7 0h-3v3h3v-3zm0-40.3v-3h-3v3h3zm11.6 0h3v-3h-3v3zm0 12.8h-3v7.7l5.2-5.7-2.2-2zm1.7-1.3l1.4 2.7-1.4-2.7zm2.3-.9l.8 2.9-.8-2.9zm12.4 4l-2.3 2 2.3-2zm2.9 4.8l-2.8 1.1 2.8-1zm0 12.4l-2.8-1.1 2.8 1zm-3 4.9l-2.2-2 2.3 2zm-4.1 3l-1.3-2.6 1.3 2.7zm-11-10.6l-2.1 2v.1l2.1-2.1zm6.4 0l2.2 2.1-2.2-2.1zm0-7l-2.1 2v.1l2.1-2zm-6.4 0l2.2 2.1-2.2-2zm6.1 15.8a9 9 0 01-2.7-.3l-1.8 5.7c1.4.4 3 .6 4.5.6v-6zm-2.7-.3c-.9-.3-1.5-.6-2-1l-3.2 5.1c1 .7 2.1 1.2 3.4 1.6l1.8-5.7zm-2-1c-.7-.4-1.3-.8-1.8-1.3l-4.2 4.2c.8.9 1.8 1.7 2.8 2.3l3.1-5.2zm-6.5-.6l-1.6 2.8 5.2 3 1.6-3-5.2-2.8zm1 1.3h-8.7v6h8.7v-6zm-5.7 3V94.7h-6V135h6zm-3-37.3h11.6v-6h-11.6v6zm8.6-3v12.8h6V94.7h-6zm5.2 14.8c.1-.2.4-.4.9-.6l-2.8-5.4c-1 .5-1.8 1.2-2.6 2l4.5 4zm1-.7l1.6-.6-1.6-5.8c-1 .3-2.1.7-3 1.2l3 5.2zm1.6-.6c.6-.2 1.4-.3 2.5-.3v-6c-1.4 0-2.8.2-4 .5l1.5 5.8zm2.5-.3a8 8 0 013.6.9l2.6-5.4c-2-1-4-1.5-6.2-1.5v6zm3.6.9c1.2.6 2.3 1.4 3.2 2.4l4.5-3.9c-1.4-1.7-3.1-3-5.1-4l-2.6 5.5zm3.3 2.5c.9 1 1.7 2.3 2.3 3.9l5.6-2.1c-.8-2.3-2-4.2-3.6-5.9l-4.3 4.1zm2.3 4a13 13 0 011 5h6c0-2.6-.5-5-1.4-7.3l-5.6 2.3zm1 5c0 1.9-.4 3.6-1 5l5.6 2.3c.9-2.3 1.3-4.7 1.3-7.3h-6zm-1 5.1c-.6 1.6-1.4 2.9-2.4 4l4.5 4c1.5-1.7 2.6-3.6 3.5-5.8l-5.6-2.2zm-2.4 4c-1 1-2 1.8-3.2 2.4l2.6 5.4c2-1 3.6-2.2 5-3.8l-4.4-4zm-3.2 2.4a8 8 0 01-3.6.8v6a14 14 0 006.2-1.4l-2.6-5.4zm-14-11.5c0 2 .7 4 2.2 5.6l4.3-4.2c-.2-.2-.4-.6-.4-1.4h-6zm2.2 5.6a7.3 7.3 0 005.3 2.2v-6c-.5 0-.8-.2-1-.4l-4.3 4.2zm5.3 2.2c2 0 4-.7 5.4-2.2l-4.3-4.2c-.2.2-.5.4-1 .4v6zm5.4-2.2a7.9 7.9 0 002.1-5.6h-6c0 .8-.2 1.2-.4 1.4l4.3 4.2zm2.1-5.6c0-2-.6-4-2.1-5.6l-4.3 4.2c.2.2.4.6.4 1.4h6zm-2-5.5a7.2 7.2 0 00-5.5-2.3v6c.5 0 .8.1 1 .4l4.4-4.1zm-5.5-2.3c-2 0-3.9.7-5.3 2.3l4.3 4c.3-.2.6-.3 1-.3v-6zm-5.3 2.2a7.7 7.7 0 00-2.1 5.6h6c0-.8.2-1.2.4-1.4l-4.3-4.2zm-151.4 41.4l2.9-.8-3-10.8-2.8 10.8 2.9.8zm-2.6 9.6l-2.9-.8-1 3.8h4v-3zm5.1 0v3h4l-1-3.8-3 .8zm-8 10.3v-3h-2.3l-.6 2.2 3 .8zm-1.9 7v3h2.3l.6-2.2-2.9-.8zm-13.7 0l-2.9-1-1.3 4h4.2v-3zm13.4-40.3v-3h-2.2l-.6 2 2.8 1zm15.4 0l2.8-1-.7-2h-2.1v3zm13.4 40.3v3h4.2l-1.4-4-2.8 1zm-13.8 0l-2.9.8.6 2.2h2.3v-3zm-1.9-7l3-.8-.7-2.2H193v3zm-8.3-20.7L182 165l5.8 1.6 2.6-9.6-5.8-1.6zm.3 13.4h5.1v-6h-5v6zm8-3.8l-2.5-9.6-5.8 1.6 2.5 9.6 5.8-1.6zm-13.8 10.3l-1.9 7 5.8 1.6 2-7-5.9-1.6zm1 4.8h-13.7v6H180v-6zm-10.9 4l13.4-40.4-5.6-1.9-13.5 40.4 5.7 1.8zm10.6-38.3h15.4v-6h-15.4v6zm12.5-2l13.5 40.2 5.6-1.8-13.4-40.4-5.7 2zm16.3 36.3h-13.8v6h13.8v-6zm-10.9 2.2l-1.9-7-5.8 1.5 2 7 5.7-1.5zM193 173H182v6h11v-6zm37.1-19.6l-.7 3 .7-3zm3.6 1.4l-1.5 2.6 1.5-2.6zm2.7 2l2-2.2-2 2.2zm2 2.2l2.4-1.7-2.4 1.7zm2.6 6l.3 3 3.3-.3-.7-3.2-2.9.6zm-11.2 1.4l-2.8 1.1.9 2.1 2.2-.3-.3-3zm-.9-1.4l2.2-2v-.1l-2.2 2zm-1.3-1l-1.6 2.5h.1l1.5-2.5zm-5.2.8l2.2 2.1-2.2-2zm0 7l2.2-2.1-2.2 2.1zm5.2.8l1.5 2.6-1.5-2.6zm1.3-1l2.1 2.2.1-.1-2.2-2zm.9-1.4l.3-3-2.3-.2-.8 2.1 2.8 1.1zm11.2 1.3l3 .6.6-3.2-3.3-.4-.3 3zm-2.6 6l-2.4-1.7 2.4 1.8zm-4.7 4.3l1.4 2.6h.1l-1.5-2.6zM230 183l-.7-2.9.7 3zm-10.8-.7l-1.2 2.8 1.2-2.8zm-5-3.3l-2.2 2.1 2.1-2.1zm-3.4-4.9l-2.8 1.2v.1l2.8-1.3zm0-11.8l-2.8-1.2 2.8 1.2zm3.3-5l-2-2 2 2zm5.1-3.3l-1.1-2.7 1.1 2.7zm6.3 1.8c1.5 0 2.7.2 3.8.4l1.5-5.8a21 21 0 00-5.3-.6v6zm3.8.4c1.1.3 2 .7 2.8 1.1l3-5.2c-1.3-.7-2.8-1.3-4.4-1.7l-1.4 5.8zm2.9 1.2c.8.4 1.5 1 2 1.4l4.1-4.3c-1-1-2-1.7-3.3-2.4l-2.8 5.3zm2 1.4a13 13 0 011.6 1.9l5-3.6-2.5-2.6-4 4.3zm1.6 1.8c1 1.5 1.8 3.1 2.2 5l5.8-1.2c-.5-2.7-1.6-5.1-3-7.2l-5 3.4zm4.8 1.4l-11.2 1.3.6 6 11.2-1.3-.6-6zm-8.1 3.1a8 8 0 00-1.5-2.3l-4.4 4 .3.6 5.6-2.3zm-1.6-2.4c-.5-.5-1.2-1-1.9-1.4l-3 5.2c.3.2.6.3.7.5l4.2-4.3zm-1.7-1.3c-1.2-.8-2.4-1-3.7-1v6h.4l3.3-5zm-3.7-1c-2 0-3.9.7-5.3 2.3l4.3 4c.3-.2.5-.3 1-.3v-6zm-5.3 2.2a7.7 7.7 0 00-2.1 5.6h6c0-.8.2-1.2.4-1.4l-4.3-4.2zm-2.1 5.6c0 2 .6 4 2.1 5.6l4.3-4.2c-.2-.2-.4-.5-.4-1.4h-6zm2.1 5.6a7.3 7.3 0 005.3 2.2v-6c-.5 0-.8-.2-1-.4l-4.3 4.2zm5.3 2.2c1.2 0 2.4-.2 3.5-.9l-3-5.2h-.5v6zm3.5-.9c.7-.4 1.4-.8 2-1.4l-4.3-4.2-.7.4 3 5.2zm2-1.5c.7-.7 1.2-1.5 1.5-2.4l-5.6-2.2-.3.6 4.4 4zm-1.6-.5l11.2 1.3.6-6-11.2-1.3-.6 6zm8.6-2.3c-.4 1.9-1.1 3.5-2.1 4.9l4.8 3.5c1.6-2.1 2.6-4.5 3.1-7.2l-5.8-1.2zm-2.2 4.9l-1.6 1.8 4.1 4.4c1-.9 1.7-1.7 2.4-2.7l-4.9-3.5zm-1.6 1.8c-.6.6-1.3 1.1-2.1 1.6l3 5.2c1.2-.7 2.3-1.5 3.2-2.4l-4-4.4zm-2 1.5c-.8.5-1.7.8-3 1.1l1.5 5.8c1.6-.4 3-.9 4.3-1.6l-2.8-5.3zm-3 1.1c-1 .3-2.2.4-3.7.4v6a21 21 0 005.3-.6l-1.5-5.8zm-3.7.4c-1.9 0-3.6-.3-5.2-1l-2.2 5.6c2.3 1 4.8 1.4 7.4 1.4v-6zm-5.1-1c-1.6-.6-3-1.5-4.2-2.7l-4.1 4.3c1.7 1.7 3.7 3 6 4l2.3-5.5zm-4.1-2.6c-1.2-1.2-2.1-2.5-2.8-4l-5.5 2.5c1 2.1 2.4 4 4 5.7l4.3-4.2zm-2.8-4c-.6-1.5-1-3-1-4.7h-6c0 2.5.5 4.9 1.5 7.1l5.5-2.4zm-1-4.7c0-1.7.4-3.3 1-4.7l-5.5-2.4c-1 2.2-1.5 4.6-1.5 7h6zm1-4.7c.7-1.5 1.6-2.9 2.8-4l-4.3-4.3c-1.6 1.7-3 3.7-4 5.9l5.5 2.4zm2.7-4c1.2-1.1 2.6-2 4.2-2.7l-2.4-5.5c-2.2 1-4.2 2.2-6 4l4.2 4.2zm4.1-2.7c1.6-.6 3.3-1 5.2-1v-6c-2.6 0-5 .5-7.4 1.5l2.2 5.5zm43 15.9v3h.4l-.5-3zm.6-.2l.6 3-.6-3zm.7-.2h3V168l-4.1 1.7 1 2.7zm0 10.3l1 2.8 2-.7v-2.1h-3zm-1.5.5l.7 2.9h.1l-.8-3zm-1.8.3l-.3-3 .3 3zm-10.9-3l-2.1 2.1 2.1-2.1zm-3-16.7h3v-3h-3v3zm-4.3 0h-3v3h3v-3zm0-9.6v-3h-3v3h3zm4.6-.8l-2.1-2.2 2 2.2zm.9-6.9v-3h-3v3h3zm10.2 0h3v-3h-3v3zm0 7h-3v3h3v-3zm5.8 0h3v-3h-3v3zm0 10.3v3h3v-3h-3zm-5.8 0v-3h-3v3h3zm-3 5.1a7 7 0 001.7 5c1.3 1.4 3.1 1.9 4.8 1.9v-6l-.5-.1h.1c.1.2 0 .1 0-.8h-6zm6.5 6.9H263.3v-6h-.2-.2-.2-.1-.1v6zm1.4 0l.8-.2-1.1-6-.6.2 1 6zm.8-.2l1.2-.4-2.2-5.5h-.1l1.1 5.9zm-3-3.2v10.3h6v-10.3h-6zm2 7.5l-1.3.4 1.7 5.8 1.7-.6-2-5.6zm-1.2.4l-1.3.2.7 6 2.1-.4-1.5-5.8zm-1.4.2l-1.8.1v6l2.6-.1-.8-6zm-1.8.1c-3 0-5.1-.8-6.5-2.2l-4.3 4.2c2.8 2.8 6.6 4 10.8 4v-6zm-6.5-2.2c-1.4-1.4-2.3-3.6-2.3-7h-6c0 4.5 1.2 8.4 4 11.2l4.3-4.2zm-2.3-7v-7.6h-6v7.7h6zm-3-10.6h-4.2v6h4.2v-6zm-1.2 3v-9.6h-6v9.6h6zm-3-6.6h2.3v-6H243v6zm2.3 0c1.6 0 3.2-.5 4.4-1.7l-4.2-4.3h-.2v6zm4.4-1.7a6.2 6.2 0 001.8-4.5h-6v.3l4.2 4.2zm1.8-4.5v-4.5h-6v4.5h6zm-3-1.5h10.2v-6h-10.2v6zm7.2-3v7h6v-7h-6zm3 10h5.8v-6h-5.8v6zm2.8-3v10.3h6v-10.2h-6zm3 7.3h-5.8v6h5.8v-6zm-8.8 3v5.1h6v-5.1h-6zm26 19.2v3h3v-3h-3zm-11.4 0h-3v3h3v-3zm0-29.4v-3h-3v3h3zm11.5 0h3v-3h-3v3zM271.7 141l-2-2.1h-.1l2.1 2.1zm8.8 0l-2.1 2.2 2-2.2zm0 8.2l-2.1-2.1 2 2.1zm-8.8 0l-2.1 2.2 2.1-2.2zM282 180h-11.5v6h11.5v-6zm-8.5 3v-29.4h-6V183h6zm-3-26.4h11.5v-6h-11.5v6zm8.5-3V183h6v-29.4h-6zm-5.8-8.4c0-.8.2-1.4.7-2l-4.2-4.2a8.6 8.6 0 00-2.5 6.2h6zm.7-1.9c.5-.5 1.2-.8 2.3-.8v-6c-2.4 0-4.7.8-6.5 2.5l4.2 4.3zm2.3-.8c1.2 0 1.8.3 2.3.8l4.2-4.3a8.9 8.9 0 00-6.5-2.5v6zm2.3.8c.6.5.8 1.1.8 2h6c0-2.5-.9-4.6-2.6-6.3l-4.2 4.3zm.8 2c0 .8-.2 1.3-.8 1.9l4.2 4.3a8.5 8.5 0 002.6-6.3h-6zm-.8 2c-.5.4-1.1.7-2.3.7v6c2.5 0 4.8-.8 6.5-2.5l-4.2-4.3zm-2.3.7c-1 0-1.8-.3-2.3-.8l-4.2 4.3c1.8 1.7 4 2.5 6.5 2.5v-6zm-2.3-.8c-.5-.5-.7-1.1-.7-2h-6c0 2.4.8 4.6 2.5 6.3l4.2-4.3zm13.5 15.2l-2.8-1.2 2.8 1.2zm3.3-5l-2-2 2 2zm5.1-3.3l-1.1-2.7 1.1 2.7zm12.6 0l1.2-2.7-1.2 2.7zm5 3.4l-2 2v.1l2-2.1zm3.5 4.9l-2.8 1.2 2.8-1.2zm0 11.8L314 173l2.8 1.2zm-3.4 4.9l-2.1-2.2 2 2.2zm-5 3.3l-1.2-2.7 1.1 2.7zm-12.7 0l-1.2 2.8 1.2-2.8zm-5-3.3l-2.2 2.1 2.1-2.1zm-3.4-4.9l-2.8 1.2v.1l2.8-1.3zm18-9.4l-2.2 2v.1l2.1-2zm-6.5 0l2.2 2.1-2.2-2zm0 7l-2.1 2v.1l2.1-2.1zm6.4 0l2.2 2.1-2.2-2.1zm-16.2-3.5c0-1.7.4-3.3 1-4.7l-5.5-2.4c-1 2.2-1.5 4.6-1.5 7h6zm1-4.7c.7-1.5 1.6-2.9 2.8-4l-4.3-4.3c-1.6 1.7-3 3.7-4 5.9l5.5 2.4zm2.7-4c1.2-1.1 2.6-2 4.2-2.7l-2.4-5.5c-2.2 1-4.2 2.2-6 4l4.2 4.2zm4.1-2.7c1.6-.6 3.3-1 5.2-1v-6c-2.6 0-5.1.5-7.4 1.5l2.2 5.5zm5.2-1c1.9 0 3.6.4 5.2 1l2.3-5.5c-2.4-1-4.9-1.5-7.5-1.5v6zm5.2 1c1.6.7 3 1.6 4 2.7l4.3-4.3c-1.7-1.7-3.7-3-6-4l-2.3 5.6zm4 2.7c1.2 1.1 2.1 2.5 2.8 4l5.5-2.4c-1-2.2-2.3-4.2-4-5.9l-4.2 4.3zm2.8 4c.7 1.5 1 3 1 4.7h6c0-2.5-.5-5-1.5-7.2l-5.5 2.6zm1 4.7c0 1.6-.3 3.2-1 4.7l5.5 2.5c1-2.3 1.5-4.7 1.5-7.2h-6zm-1 4.7c-.6 1.5-1.5 2.8-2.7 4l4.2 4.2c1.7-1.6 3-3.6 4-5.8L314 173zm-2.8 4c-1 1-2.4 2-4 2.7l2.3 5.5c2.3-1 4.3-2.3 6-4l-4.3-4.2zm-4 2.7c-1.6.6-3.3 1-5.2 1v6c2.6 0 5.1-.5 7.5-1.5l-2.3-5.5zm-5.2 1c-1.9 0-3.6-.4-5.2-1l-2.2 5.5c2.3 1 4.8 1.4 7.4 1.4v-6zm-5.1-1c-1.6-.7-3-1.6-4.2-2.8l-4.1 4.3c1.7 1.7 3.7 3 6 4l2.3-5.5zm-4.1-2.7c-1.2-1.2-2.1-2.5-2.8-4l-5.5 2.5c1 2.1 2.4 4 4 5.7l4.3-4.2zm-2.8-4c-.6-1.5-1-3-1-4.7h-6c0 2.5.5 4.9 1.5 7.1l5.5-2.4zm19.5-4.7c0-2-.6-4-2.1-5.6l-4.3 4.2c.2.2.4.6.4 1.4h6zm-2-5.5a7.2 7.2 0 00-5.5-2.3v6c.5 0 .8.1 1 .4l4.4-4.1zm-5.5-2.3c-2 0-3.9.7-5.3 2.3l4.3 4c.3-.2.5-.3 1-.3v-6zm-5.3 2.2a7.7 7.7 0 00-2.1 5.6h6c0-.8.2-1.2.4-1.4l-4.3-4.2zm-2.1 5.6c0 2 .6 4 2 5.6l4.4-4.2c-.2-.2-.4-.6-.4-1.4h-6zm2.1 5.6a7.3 7.3 0 005.3 2.2v-6c-.5 0-.8-.2-1-.4l-4.3 4.2zm5.3 2.2c2 0 4-.7 5.4-2.2l-4.3-4.2c-.2.2-.5.4-1 .4v6zm5.4-2.2a7.9 7.9 0 002.1-5.6h-6c0 .8-.2 1.2-.4 1.4l4.3 4.2zm38.1-20l-1.1 2.7 1.1-2.8zm3.8 2.4l-2.2 2 2.2-2zm2.4 4l-2.8 1v.1l2.8-1zm.9 22.7v3h3v-3h-3zm-11.5 0h-3v3h3v-3zm-1-17.7l-2.3 2 2.2-2zm-5.3 0l2.1 2-2.1-2zm-1.1 17.7v3h3v-3h-3zm-11.5 0h-3v3h3v-3zm0-29.4v-3h-3v3h3zm8.3 0l2.6-1.5-.8-1.5h-1.8v3zm1.6 2.8l-2.6 1.5 1.9 3.4 2.8-2.7-2-2.2zm2.3-1.7l1.6 2.6-1.6-2.6zm2.7-1.2l1 2.9-1-2.9zm3.6 2.4c1.4 0 2.7.3 3.7.7l2.3-5.6c-1.9-.7-3.9-1-6-1v6zm3.8.7c1 .4 1.9 1 2.6 1.7l4.4-4c-1.4-1.5-3-2.6-4.9-3.3l-2.1 5.6zm2.6 1.8a8 8 0 011.8 3l5.6-2a14 14 0 00-3-5.2l-4.4 4.2zm1.8 3c.4 1.2.7 2.6.7 4.3h6c0-2.3-.4-4.4-1.1-6.4l-5.6 2.1zm.7 4.3V183h6v-17.3h-6zm3 14.3H341v6h11.5v-6zm-8.5 3v-14.7h-6V183h6zm0-14.7c0-1.8-.5-3.7-1.9-5l-4.3 4s.2.2.2 1h6zm-1.8-5a6.2 6.2 0 00-4.8-2.2v6h.1l.2.2 4.5-4zm-4.8-2.2c-1.8 0-3.6.7-4.9 2.1l4.4 4.1c.1-.1.2-.2.5-.2v-6zm-4.8 2a7 7 0 00-2 5.2h6c0-.7.2-.9.2-1l-4.2-4.1zm-2 5.2V183h6v-14.7h-6zm3 11.7h-11.5v6h11.5v-6zm-8.5 3v-29.4h-6V183h6zm-3-26.4h8.3v-6h-8.3v6zm5.7-1.6l1.6 2.9 5.2-3-1.6-2.8-5.2 3zm6.3 3.6c.5-.5 1-1 1.8-1.3l-3.1-5.2c-1 .7-2 1.4-2.8 2.2l4 4.3zm1.8-1.4c.5-.3 1.1-.6 2-.8l-1.8-5.8c-1.3.4-2.4 1-3.4 1.6l3.2 5zm2.1-.9c.7-.2 1.6-.4 2.6-.4v-6c-1.6 0-3.2.3-4.6.8l2 5.6z" />
  <path fill="#9CDAF1"
    d="M88.6 88.8c0 6.1-14.2 11-31.7 11s-31.6-4.9-31.6-11c0-6.2 14.1-11.2 31.6-11.2s31.7 5 31.7 11.2z" />
  <path fill="#7DBBE6"
    d="M48.3 99.5v-8c0-1-.2-1.8-.5-2.6 2 1.6 2.2 5.6 2.2 5.6v5.1c1.8.2 3.7.2 5.7.3v-5c-.3-7-6.3-7.9-6.3-7.9-2.1-.5-2 .6-1.9 1.3-2-3.6-7.8-3.1-7.8-3.1-2 .7-.1 2-.1 2 3 1 3.4 4.5 3.4 4.5v7l5.3.8zM73.2 85.2s-5.7-.5-7.8 3.1c.2-.7.3-1.8-1.9-1.3 0 0-5.9.9-6.2 7.8v5l5.7-.1v-5.2s0-4 2.1-5.6c-.3.8-.5 1.6-.5 2.6v8c1.9-.1 3.7-.3 5.4-.6v-7.2s.3-3.4 3.4-4.5c0 0 1.8-1.3-.2-2z" />
  <path fill="#000"
    d="M112.8 42.6l.1-.4c-9.3-1.9-18.8-1.9-24.6-1.6 1-3.5 1.2-7.4 1.2-11.8 0-6.3-2.3-11.4-6.2-15.2.7-2.2 1.6-7-.8-13.2 0 0-4.4-1.4-14.2 5.2A49.7 49.7 0 0043 6C32.9-1 28.4.4 28.4.4c-3 7.3-1.1 12.8-.6 14.1a20.5 20.5 0 00-5.5 14.3c0 4.4.5 8.3 1.7 11.7-5.8-.2-15-.1-24 1.7l.1.4c9-1.8 18.3-1.9 24-1.6l1 2c-5.7.2-15.5 1-24.9 3.6l.2.4c9.4-2.7 19.2-3.4 24.9-3.6 3.4 6.4 10.2 10.6 22.1 11.9a9.9 9.9 0 00-4.1 6.4c-2.3 1-9.7 3.8-14-3.8 0 0-2.5-4.5-7.2-4.9 0 0-4.6 0-.4 2.9 0 0 3.1 1.4 5.2 6.9 0 0 2.8 9.2 16 6.3v9.6s-.2 3.3-3.3 4.5c0 0-1.8 1.3.1 2 0 0 8.6.7 8.6-6.4V68.3s-.3-4.1 1.7-5.5v17.1s-.1 4.1-2.2 5.7c0 0-1.5 2.5 1.6 1.8 0 0 6-.8 6.2-7.8l.2-17.3h1.4l.1 17.3c.3 7 6.2 7.8 6.2 7.8 3.1.7 1.7-1.8 1.7-1.8-2.1-1.6-2.2-5.7-2.2-5.7V63c2 1.6 1.6 5.4 1.6 5.4v10.5c0 7 8.6 6.4 8.6 6.4 2-.7.2-2 .2-2-3.1-1.2-3.4-4.5-3.4-4.5V64.9c0-5.3-2.2-8.1-4.4-9.6 12.7-1.3 18.9-5.4 21.7-11.9 5.6.2 15.7.9 25.3 3.6l.1-.4c-9.6-2.7-19.6-3.4-25.2-3.6l.7-2c5.7-.3 15.3-.3 24.6 1.6z" />
  <path fill="#F4CBB2"
    d="M77 28.5a12 12 0 014.4 8.8c0 15.2-11.3 15.6-25.2 15.6-14 0-25.2-2.1-25.2-15.6a12 12 0 014.3-8.8c4.5-4.1 12.2-2 20.9-2 8.6 0 16.3-2.1 20.8 2z" />
  <path fill="#fff"
    d="M47.8 38c0 4.2-2.4 7.6-5.3 7.6s-5.2-3.4-5.2-7.6c0-4.1 2.3-7.5 5.2-7.5 3 0 5.3 3.4 5.3 7.5zm28.1 0c0 4.2-2.3 7.6-5.2 7.6-2.9 0-5.2-3.4-5.2-7.6 0-4.1 2.3-7.5 5.2-7.5 2.9 0 5.2 3.4 5.2 7.5z" />
  <path fill="#AD5C51"
    d="M46.1 38.1c0 2.8-1.6 5-3.5 5-2 0-3.5-2.2-3.5-5s1.6-5 3.5-5c2 0 3.5 2.2 3.5 5zm28.2 0c0 2.8-1.6 5-3.5 5-2 0-3.5-2.2-3.5-5s1.5-5 3.5-5c1.9 0 3.5 2.2 3.5 5zM56.3 46.1a1.3 1.3 0 100-2.6 1.3 1.3 0 000 2.6zM53.2 48.1c0-.2 0-.5.3-.5.2-.1.4 0 .5.2.3 1 1.2 1.6 2.2 1.6 1 0 2-.6 2.3-1.6 0-.2.3-.3.5-.2.3 0 .4.3.3.5a3.2 3.2 0 01-6 0h-.1z" />
  <path fill="#C3E4D8"
    d="M24.1 54.1c0 .4-.4.7-1 .7-.4 0-.8-.3-.8-.7 0-.3.4-.6.9-.6s.9.3.9.6zm2.5 1.5c0 .3-.4.6-.9.6s-.9-.3-.9-.6c0-.4.4-.7 1-.7.4 0 .8.3.8.7zm1.6 1.8c0 .3-.4.6-1 .6-.4 0-.8-.3-.8-.6 0-.4.4-.6.9-.6s.9.2.9.6zm1.4 2.1c0 .4-.4.6-1 .6-.4 0-.8-.2-.8-.6 0-.3.4-.6.9-.6s.9.3.9.6zm1.5 2c0 .3-.4.6-.9.6s-.9-.3-.9-.6c0-.4.4-.6 1-.6.4 0 .8.2.8.6zm2.2 1.7c0 .3-.5.6-1 .6s-.9-.3-.9-.6c0-.4.4-.7 1-.7.4 0 .9.3.9.7zm3 1.1c0 .4-.5.6-1 .6s-1-.2-1-.6c0-.3.5-.6 1-.6s1 .3 1 .6zm2.9 0c0 .4-.5.6-1 .6s-.9-.2-.9-.6c0-.3.4-.6 1-.6.4 0 .9.3.9.6zm3-.5c0 .4-.5.7-1 .7s-.9-.3-.9-.7c0-.3.4-.6 1-.6.4 0 .8.3.8.6z" />
  <path fill="#9CDAF1" d="M20.7 56l-.9 3.2s-.2 1.2.9 1.4c1.1 0 1-1.1 1-1.4l-1-3.2z" />
  <path fill="url(#paint0_linear)" stroke="#fff" stroke-width="3"
    d="M90.2 55.5h46.6c7 0 12.7 5.7 12.7 12.7v45.2c0 7-5.7 12.7-12.7 12.7H90.2c-7 0-12.7-5.7-12.7-12.7V68.2c0-7 5.7-12.7 12.7-12.7z" />
  <mask id="a" width="75" height="74" x="76" y="54" maskUnits="userSpaceOnUse">
    <path fill="#C4C4C4"
      d="M76 68.2C76 60.3 82.3 54 90.2 54h46.6c7.9 0 14.2 6.3 14.2 14.2v45.2c0 7.8-6.3 14.2-14.2 14.2H90.2c-7.9 0-14.2-6.4-14.2-14.2V68.2z" />
  </mask>
  <g fill="#fff" fill-rule="evenodd" clip-rule="evenodd" mask="url(#a)">
    <path
      d="M123.8 65.4c.7 1.3.2 3-1.1 3.8l-29 16.3c-1 .5-2 .5-2.8 0L76 77a2.8 2.8 0 012.8-5l13.5 7.8 27.6-15.5c1.4-.8 3-.3 3.9 1z" />
    <path
      d="M123.8 76.7c.7 1.3.2 3-1.1 3.8l-29 16.3c-1 .5-2 .5-2.8 0L76 88.3a2.8 2.8 0 012.8-5l13.5 7.8 27.6-15.5c1.4-.8 3-.3 3.9 1z" />
    <path
      d="M123.8 88c.7 1.4.2 3-1.1 3.8l-29 16.3c-1 .5-2 .5-2.8 0L76 99.6a2.8 2.8 0 012.8-4.9l13.5 7.7 27.6-15.5c1.4-.8 3-.3 3.9 1z" />
  </g>
  <defs>
    <linearGradient id="paint0_linear" x1="113.5" x2="113.5" y1="54" y2="127.6" gradientUnits="userSpaceOnUse">
      <stop stop-color="#FD6561" />
      <stop offset="1" stop-color="#CD3B2E" />
    </linearGradient>
  </defs>
</svg>